<svg width="749" height="766" viewBox="0 0 749 766" fill="none" xmlns="http://www.w3.org/2000/svg">
<path d="M677.956 322.75C676.144 327.568 673.953 332.227 671.404 336.683C637.135 397.257 566.934 415.604 577.802 454.906C587.162 488.676 579.622 534.359 516.701 559.035C512.697 560.63 508.485 562.119 503.961 563.555L502.869 563.874C500.009 564.778 496.993 565.629 493.924 566.427C489.868 567.49 485.604 568.501 481.132 569.405C473.375 571.067 465.425 571.586 457.524 570.947C453.413 570.589 449.341 569.859 445.355 568.767C443.327 568.235 441.299 567.597 439.323 566.906C435.931 565.74 432.629 564.318 429.443 562.651C392.21 544.038 368.342 502.822 312.18 521.595C302.873 524.679 294.188 527.126 286.024 528.934C278.377 530.692 270.631 531.971 262.831 532.763C255.333 533.543 247.782 533.667 240.263 533.135C232.585 532.632 224.993 531.204 217.642 528.881C157.893 509.789 150.717 436.664 111.872 417.732C111.404 417.519 110.884 417.253 110.416 416.987C99.0875 411.242 89.1952 402.92 81.4975 392.66C73.7998 382.401 68.5011 370.475 66.0073 357.796C63.8399 347.572 63.7842 336.997 65.8438 326.75C67.9034 316.502 72.0328 306.807 77.9677 298.286C83.6292 290.39 90.8149 283.765 99.0801 278.822C151.393 247.019 185.87 259.198 190.654 185.488C195.438 111.833 320.397 102.792 360.229 132.201C385.97 151.187 415.559 183.681 458.512 194.211C482.068 200.007 509.629 199.209 542.806 186.02C551.324 182.587 560.236 180.281 569.326 179.16C645.716 169.694 704.893 252.284 677.956 322.75Z" fill="url(#paint0_linear_194_1956)"/>
<path style="mix-blend-mode:overlay" d="M677.957 322.749C676.145 327.568 673.954 332.227 671.405 336.683C637.136 397.257 566.935 415.604 577.803 454.905C587.163 488.675 579.623 534.358 516.702 559.034C512.697 560.63 508.485 562.119 503.961 563.555L502.869 563.874C500.009 564.778 496.993 565.629 493.925 566.427C489.869 567.49 485.605 568.501 481.133 569.405C473.375 571.067 465.426 571.586 457.525 570.947C453.413 570.589 449.341 569.859 445.356 568.767C443.328 568.235 441.3 567.597 439.324 566.905C435.932 565.74 432.629 564.318 429.444 562.651C392.211 544.038 368.342 502.822 312.181 521.595C302.873 524.679 294.189 527.125 286.025 528.934C278.377 530.692 270.632 531.971 262.832 532.763C255.333 533.542 247.783 533.667 240.264 533.135C232.586 532.632 224.993 531.204 217.643 528.881C157.894 509.789 150.718 436.664 111.873 417.732C111.405 417.519 110.885 417.253 110.417 416.987C124.769 412.573 141.93 415.923 157.582 416.136C174.968 416.223 192.091 411.795 207.347 403.266C229.013 391.571 246.061 372.577 255.604 349.5C255.76 349.075 255.968 348.596 256.124 348.17C259.452 339.502 261.74 330.142 267.408 322.856C272.697 316.246 280.102 311.762 288.313 310.199C289.65 309.874 291.004 309.625 292.369 309.454C302.292 308.332 312.332 309.738 321.593 313.549C339.846 320.995 354.77 334.875 371.566 345.352C384.064 353.097 397.633 358.87 411.815 362.476C420.055 364.594 428.459 365.982 436.932 366.624H437.14C437.484 366.686 437.831 366.721 438.18 366.73C459.169 368.297 480.239 365.139 499.906 357.477C501.205 356.998 502.453 356.467 503.702 355.935C509.305 353.49 514.743 350.665 519.978 347.479C520.03 347.479 520.03 347.426 520.081 347.426C521.694 346.469 523.254 345.405 524.762 344.341C536.275 336.447 546.475 326.715 554.974 315.517C577.283 286.267 588.099 247.764 581.339 211.335C579.388 199.922 575.31 188.998 569.327 179.16C645.716 169.694 704.894 252.284 677.957 322.749Z" fill="url(#paint1_linear_194_1956)"/>
<path style="mix-blend-mode:overlay" d="M677.956 322.749C676.144 327.567 673.953 332.227 671.404 336.683C637.135 397.256 566.934 415.604 577.802 454.905C587.162 488.675 579.622 534.358 516.701 559.034C512.697 560.63 508.485 562.119 503.961 563.555L502.869 563.874C500.009 564.778 496.993 565.629 493.924 566.426C489.868 567.49 485.604 568.501 481.132 569.405C473.375 571.066 465.425 571.586 457.524 570.947C453.413 570.589 449.341 569.859 445.355 568.767C443.327 568.235 441.299 567.596 439.323 566.905C435.931 565.74 432.629 564.318 429.443 562.651C392.21 544.037 368.341 502.822 312.18 521.595C302.873 524.679 294.188 527.125 286.024 528.934C278.377 530.692 270.631 531.97 262.831 532.763C255.333 533.542 247.782 533.667 240.263 533.135C232.585 532.632 224.993 531.204 217.642 528.881C157.893 509.788 150.717 436.664 111.872 417.732C111.404 417.519 110.884 417.253 110.416 416.987C99.0875 411.242 89.1952 402.92 81.4975 392.66C73.7998 382.4 68.5011 370.474 66.0073 357.796C63.8399 347.572 63.7842 336.997 65.8438 326.749C67.9034 316.502 72.0328 306.807 77.9677 298.286C99.34 303.179 120.193 315.942 139.017 328.387C141.201 329.822 143.437 331.312 145.673 332.747C165.746 345.724 187.846 358.115 210.258 360.615C219.326 361.78 228.532 361.02 237.299 358.381C243.803 356.38 249.974 353.386 255.603 349.5C267.414 340.706 277.742 330 286.18 317.804C288.312 315.038 290.34 312.273 292.368 309.454C303.496 294.138 314.521 278.396 328.613 266.75C329.549 265.951 330.485 265.207 331.473 264.463C342.292 256.253 354.651 250.415 367.777 247.313C380.903 244.211 394.514 243.912 407.758 246.434C427.623 250.369 445.563 260.474 463.14 271.004C464.492 271.802 465.792 272.599 467.092 273.397C470.42 275.365 473.748 277.386 477.076 279.353L478.168 279.991C479.26 280.63 480.3 281.268 481.392 281.853C482.536 282.544 483.68 283.129 484.824 283.82C484.928 283.874 485.084 283.98 485.188 284.033C488.672 286.001 492.156 287.916 495.64 289.777C514.641 300.121 534.495 308.734 554.974 315.517C571.449 320.918 588.392 324.693 605.571 326.791C629.747 329.709 654.234 328.342 677.956 322.749Z" fill="url(#paint2_linear_194_1956)"/>
<path style="mix-blend-mode:overlay" d="M486.176 283.023C485.874 283.386 485.543 283.724 485.188 284.034C471.616 298.606 451.232 304.934 431.471 305.785C409.891 306.697 388.462 301.723 369.382 291.373C356.048 283.478 343.369 274.478 331.473 264.463C323.916 258.342 316.015 252.678 307.813 247.498C286.336 234.309 258.1 227.396 236.727 240.691C220.866 250.53 212.599 268.877 201.834 284.247C187.094 304.696 167.855 321.311 145.673 332.748C139.472 336.087 133.101 339.088 126.589 341.736C107.055 349.42 86.7309 354.808 66.0073 357.796C63.8399 347.572 63.7842 336.997 65.8438 326.75C67.9034 316.502 72.0328 306.807 77.9677 298.286C83.6292 290.39 90.8149 283.765 99.0801 278.822C151.393 247.019 185.87 259.198 190.654 185.489C195.438 111.833 320.397 102.792 360.229 132.201C385.97 151.187 415.559 183.681 458.512 194.211C461.138 197.695 464.081 200.918 467.3 203.836C475.62 211.282 485.656 216.919 492.156 226.066C504.013 242.818 499.801 267.76 486.176 283.023Z" fill="url(#paint3_linear_194_1956)"/>
<path d="M590.191 559.105C584.097 557.508 577.645 555.412 571.144 553.235C562.292 550.506 552.837 550.593 544.034 553.485C528.063 557.988 514.926 567.16 506.834 560.472C506.569 560.343 506.357 560.122 506.236 559.848C505.894 559.628 505.594 559.346 505.35 559.016C505.08 558.69 504.845 558.334 504.652 557.954C504.497 557.776 504.36 557.582 504.246 557.375C503.678 556.353 503.475 555.161 503.672 554.003C503.731 553.458 503.92 552.936 504.222 552.483C504.689 551.533 505.362 550.706 506.19 550.064C507.613 548.712 509.192 547.542 510.891 546.579C516.185 543.442 523.847 540.253 532.405 536.385C534.505 535.442 536.62 534.435 538.735 533.427C543.266 531.278 547.983 528.898 552.618 526.291C555.329 524.738 558.055 523.12 560.683 521.341C568.771 515.833 578.379 513.138 588.083 513.658C608.49 514.761 625.906 529.807 626.898 546.632C627.919 565.389 611.35 564.862 590.191 559.105Z" fill="#FFDE2F"/>
<path d="M606.876 544.726C606.76 544.961 606.601 545.17 606.406 545.341C606.212 545.513 605.986 545.643 605.742 545.725C605.499 545.808 605.241 545.84 604.985 545.82C604.729 545.801 604.479 545.73 604.25 545.611C602.969 544.935 601.637 544.363 600.268 543.9C587.788 539.328 568.98 538.883 549.759 542.882C535.295 545.734 521.452 551.231 508.895 559.109C508.288 559.457 507.705 559.846 507.148 560.273C507.032 560.319 506.925 560.386 506.833 560.473L506.439 560.723C506.348 560.786 506.247 560.831 506.14 560.857C505.843 560.991 505.52 561.051 505.197 561.033C504.874 561.016 504.559 560.92 504.278 560.756C504.068 560.585 503.887 560.379 503.745 560.146C503.514 559.775 503.402 559.339 503.425 558.899L503.44 558.834C503.42 558.629 503.467 558.422 503.574 558.247C503.724 557.904 503.955 557.605 504.245 557.375C504.654 557.06 505.126 556.761 505.52 556.511C506.228 556.061 506.874 555.596 507.646 555.161C508.821 554.342 510.047 553.601 511.317 552.944C517.734 549.204 524.485 546.097 531.477 543.664C537.814 541.432 544.308 539.697 550.904 538.476C570.207 534.704 588.877 535.459 601.596 540.158C603.077 540.704 604.529 541.327 605.946 542.026C606.417 542.261 606.778 542.676 606.952 543.181C607.125 543.687 607.098 544.241 606.876 544.726Z" fill="white"/>
<path d="M508.575 557.173C508.266 558.206 507.704 559.141 506.944 559.891C506.6 560.213 506.237 560.515 505.858 560.795C505.472 561.041 505.071 561.262 504.657 561.455L504.191 561.616C503.437 561.818 502.638 561.757 501.921 561.441C501.664 561.293 501.414 561.131 501.174 560.956C501.101 560.945 501.038 560.861 500.976 560.776C500.792 560.695 500.631 560.568 500.509 560.406L500.446 560.322L500.374 560.311C499.422 559.077 498.637 557.717 498.042 556.268C495.921 550.861 494.084 545.342 492.538 539.735C490.442 532.497 487.797 525.437 484.628 518.619C481.504 512.484 480.438 505.471 481.593 498.656C483.868 484.223 495.469 473.02 506.924 473.678C508.997 473.713 511.03 474.264 512.847 475.285C514.366 476.217 515.485 477.702 515.977 479.442C517.006 483.311 516.857 487.409 515.551 491.189C514.754 494.445 513.723 497.637 512.465 500.737C511.302 503.825 509.973 507.041 508.561 510.319C508.045 511.381 507.592 512.527 507.066 513.663C505.592 517.038 504.72 520.655 504.492 524.344C504.633 531.818 505.835 539.231 508.061 546.352C508.502 548.171 508.843 550.014 509.08 551.872C509.081 552.402 509.155 552.942 509.167 553.398C509.226 554.684 509.025 555.97 508.575 557.173Z" fill="#FFDE2F"/>
<path d="M506.904 561.649C506.762 561.829 506.578 561.97 506.369 562.06C506.16 562.149 505.933 562.184 505.707 562.161C505.482 562.139 505.266 562.059 505.078 561.93C504.89 561.8 504.736 561.625 504.631 561.42C491.821 536.506 493.044 502.789 502.154 488.112C502.348 487.799 502.656 487.578 503.01 487.497C503.364 487.417 503.735 487.483 504.041 487.682C504.347 487.881 504.564 488.196 504.642 488.558C504.721 488.92 504.656 489.299 504.462 489.612C495.766 503.612 495.028 536.743 507.05 560.124C507.173 560.365 507.225 560.638 507.199 560.909C507.174 561.18 507.071 561.437 506.904 561.649Z" fill="white"/>
<path d="M571.141 478.338C564.216 484.59 561.858 494.056 560.884 504.541C560.311 510.682 560.217 517.064 559.919 523.332C559.741 527.922 559.324 532.498 558.669 537.042C558.366 538.738 558.064 540.435 557.631 542.03C556.625 546.489 554.634 550.652 551.811 554.202C550.648 555.587 549.327 556.824 547.877 557.888C531.004 570.21 518.005 569.159 509.878 564.597C509.111 564.183 508.373 563.714 507.669 563.194C507.418 563.035 507.176 562.863 506.942 562.678C506.919 562.644 506.888 562.617 506.853 562.597C506.818 562.577 506.779 562.566 506.739 562.564L506.752 562.49C506.572 562.402 506.416 562.268 506.3 562.101L506.241 562.014L506.169 562C505.454 561.458 504.789 560.849 504.183 560.183C503.675 559.647 503.204 559.076 502.774 558.472C497.245 551.88 496.834 546.242 499.163 541.114C500.154 538.89 501.451 536.823 503.013 534.975C503.847 534.063 504.764 533.091 505.61 532.106L505.624 532.032C507.604 530.116 509.657 528.212 511.723 526.235C518.674 519.836 525.625 513.437 525.366 505.693C525.197 501.629 524.774 497.58 524.1 493.571C523.916 492.089 523.661 490.594 523.419 489.025C522.883 485.345 522.301 481.502 522.034 477.567C520.801 463.165 522.426 447.773 536.689 435.041C561.065 413.223 557.706 385.244 569.617 402.854C581.515 420.539 596.972 455.039 571.141 478.338Z" fill="#FFDE2F"/>
<path d="M567.916 429.966C557.244 445.12 553.801 464.44 551.854 482.896C551.367 487.3 551.037 491.658 550.662 495.854C550.034 505.651 548.819 515.399 547.025 525.043C546.506 527.462 545.761 529.823 544.8 532.095C542.979 536.466 540.424 540.476 537.25 543.945C530.83 550.653 523.065 555.86 514.49 559.208C513.69 559.516 512.805 559.884 512.09 560.132C511.133 560.487 510.261 560.781 509.474 561.016C509.023 561.22 508.546 561.362 508.058 561.438C507.586 561.579 507.186 561.732 506.871 561.826C506.657 561.872 506.447 561.935 506.242 562.014L506.17 562C505.311 562.221 504.767 562.348 504.61 562.395C504.241 562.469 503.86 562.444 503.503 562.324C503.146 562.205 502.825 561.993 502.571 561.71C502.32 561.412 502.128 561.065 502.008 560.691C501.935 560.285 501.967 559.866 502.102 559.477C502.237 559.087 502.469 558.741 502.775 558.472C503.023 558.212 503.34 558.032 503.687 557.956C503.784 557.903 503.891 557.871 504.002 557.863C504.936 557.678 505.855 557.416 506.748 557.079C507.091 557.008 507.431 556.919 507.765 556.812C508.552 556.577 509.424 556.283 510.381 555.928C511.823 555.358 513.436 554.668 515.207 553.932C524.28 550.164 532.139 543.868 537.889 535.76C540.187 532.206 541.827 528.25 542.725 524.089C544.472 514.616 545.679 505.047 546.342 495.431C546.895 488.981 547.475 482.384 548.369 475.694C550.5 458.719 554.381 441.538 564.351 427.397C564.688 426.906 565.2 426.571 565.777 426.465C566.354 426.358 566.949 426.489 567.432 426.828C567.67 426.998 567.871 427.215 568.025 427.467C568.179 427.718 568.281 427.999 568.327 428.292C568.372 428.585 568.359 428.884 568.288 429.172C568.218 429.459 568.091 429.729 567.916 429.966Z" fill="white"/>
<path opacity="0.1" d="M372.104 206.096C372.319 206.096 372.532 206.053 372.73 205.969C372.929 205.884 373.109 205.761 373.261 205.606C373.413 205.45 373.534 205.266 373.616 205.063C373.698 204.859 373.74 204.642 373.74 204.422V200.006C373.74 199.562 373.568 199.137 373.261 198.823C372.954 198.509 372.538 198.333 372.104 198.333C371.67 198.333 371.254 198.509 370.947 198.823C370.64 199.137 370.467 199.562 370.467 200.006V204.422C370.467 204.866 370.64 205.292 370.947 205.606C371.254 205.92 371.67 206.096 372.104 206.096ZM355.341 209.98C355.648 210.291 356.064 210.465 356.496 210.464C356.928 210.462 357.343 210.286 357.648 209.973C357.954 209.661 358.126 209.237 358.128 208.795C358.129 208.353 357.959 207.928 357.655 207.613L354.602 204.491C354.45 204.334 354.27 204.209 354.071 204.124C353.872 204.038 353.658 203.994 353.443 203.994C353.227 203.993 353.013 204.036 352.814 204.12C352.614 204.204 352.433 204.328 352.281 204.484C352.128 204.64 352.007 204.825 351.925 205.029C351.843 205.233 351.801 205.452 351.801 205.672C351.802 205.893 351.845 206.111 351.929 206.315C352.012 206.518 352.134 206.703 352.288 206.858L355.341 209.98ZM389.606 204.491L386.552 207.613C386.246 207.927 386.073 208.353 386.073 208.797C386.073 209.241 386.246 209.667 386.553 209.981C386.86 210.295 387.276 210.471 387.71 210.471C388.144 210.471 388.56 210.294 388.867 209.98L391.92 206.858C392.224 206.543 392.394 206.119 392.393 205.676C392.391 205.234 392.219 204.811 391.913 204.498C391.607 204.185 391.193 204.009 390.761 204.008C390.329 204.007 389.913 204.18 389.606 204.491ZM522.836 391.992L521.329 392.365C521.12 389.067 520.965 385.717 520.756 382.313L524.136 389.174L522.836 391.992ZM290.652 192.758H292.992C293.144 193.698 293.37 194.623 293.668 195.524L291.692 196.694C291.415 196.857 291.173 197.076 290.978 197.335C290.784 197.595 290.641 197.892 290.559 198.208C290.477 198.524 290.457 198.854 290.5 199.178C290.542 199.502 290.647 199.815 290.808 200.098L292.368 202.81C292.522 203.099 292.731 203.354 292.983 203.559C293.235 203.765 293.525 203.916 293.835 204.006C294.145 204.095 294.469 204.12 294.789 204.079C295.109 204.038 295.417 203.932 295.696 203.767L297.672 202.597C298.296 203.289 298.972 203.98 299.648 204.618L298.505 206.639C298.186 207.211 298.1 207.889 298.265 208.526C298.431 209.162 298.834 209.707 299.388 210.042L302.093 211.638C302.652 211.967 303.315 212.057 303.939 211.887C304.562 211.718 305.095 211.303 305.42 210.734L306.617 208.659C307.477 208.988 308.364 209.237 309.268 209.404V211.797C309.276 212.458 309.537 213.089 309.993 213.556C310.45 214.023 311.067 214.289 311.713 214.297H314.833C315.478 214.289 316.095 214.023 316.552 213.556C317.009 213.089 317.269 212.458 317.277 211.797V209.404C318.196 209.231 319.101 208.982 319.981 208.659L321.125 210.734C321.453 211.301 321.985 211.713 322.608 211.882C323.23 212.051 323.893 211.964 324.453 211.638L327.157 210.042C327.711 209.707 328.115 209.162 328.28 208.526C328.445 207.889 328.36 207.211 328.041 206.639L326.897 204.618C327.594 203.985 328.254 203.31 328.873 202.597L330.849 203.767C331.128 203.93 331.437 204.035 331.756 204.075C332.075 204.115 332.399 204.09 332.709 204.001C333.019 203.912 333.308 203.76 333.56 203.556C333.812 203.352 334.022 203.098 334.177 202.81L335.737 200.098C335.904 199.816 336.014 199.504 336.06 199.178C336.106 198.853 336.087 198.521 336.004 198.203C335.922 197.885 335.777 197.588 335.579 197.328C335.382 197.069 335.135 196.853 334.853 196.694L332.877 195.524C333.168 194.616 333.411 193.693 333.605 192.758H335.893C336.214 192.759 336.532 192.694 336.829 192.569C337.126 192.443 337.395 192.259 337.622 192.027C337.849 191.795 338.029 191.519 338.152 191.216C338.275 190.912 338.337 190.587 338.337 190.259V187.068C338.337 186.74 338.275 186.414 338.152 186.111C338.029 185.808 337.849 185.532 337.622 185.3C337.395 185.068 337.126 184.883 336.829 184.758C336.532 184.632 336.214 184.568 335.893 184.568H333.605C333.424 183.631 333.181 182.707 332.877 181.803L334.853 180.633C335.132 180.471 335.377 180.254 335.573 179.995C335.769 179.735 335.912 179.438 335.995 179.121C336.077 178.804 336.097 178.474 336.052 178.149C336.008 177.824 335.901 177.511 335.737 177.229L334.177 174.464C334.019 174.179 333.807 173.928 333.553 173.728C333.299 173.528 333.009 173.381 332.699 173.297C332.389 173.213 332.066 173.192 331.748 173.238C331.43 173.283 331.125 173.392 330.849 173.56L328.873 174.73C328.571 174.35 328.24 173.994 327.885 173.666V173.613C327.573 173.294 327.209 172.975 326.897 172.709L327.521 171.592L328.041 170.635C328.36 170.063 328.446 169.385 328.28 168.748C328.115 168.112 327.711 167.567 327.157 167.232L324.453 165.636C323.84 165.321 323.131 165.263 322.477 165.476C321.901 165.653 321.415 166.054 321.125 166.593L319.981 168.614C319.101 168.292 318.196 168.043 317.277 167.87V165.529C317.277 165.201 317.214 164.876 317.091 164.573C316.969 164.269 316.789 163.993 316.562 163.761C316.335 163.529 316.065 163.345 315.768 163.219C315.472 163.094 315.154 163.03 314.833 163.03H311.713C311.392 163.03 311.074 163.094 310.777 163.219C310.48 163.345 310.211 163.529 309.984 163.761C309.756 163.993 309.576 164.269 309.454 164.572C309.331 164.876 309.268 165.201 309.268 165.529V167.87C308.348 168.036 307.443 168.286 306.564 168.614L305.42 166.593C305.1 166.018 304.572 165.595 303.949 165.416C303.326 165.237 302.659 165.316 302.093 165.636L299.388 167.232C298.834 167.567 298.431 168.112 298.265 168.748C298.1 169.385 298.186 170.063 298.505 170.635L299.648 172.709C298.939 173.328 298.278 174.004 297.672 174.73L295.696 173.56C295.421 173.391 295.115 173.28 294.797 173.234C294.479 173.188 294.155 173.208 293.845 173.292C293.535 173.376 293.244 173.523 292.99 173.725C292.736 173.926 292.525 174.178 292.368 174.464L290.808 177.229C290.704 177.442 290.652 177.602 290.548 177.815C290.426 178.348 290.47 178.907 290.676 179.413C290.881 179.918 291.237 180.345 291.692 180.633L293.668 181.803C293.358 182.701 293.131 183.627 292.992 184.568H290.652C290.331 184.568 290.013 184.632 289.717 184.758C289.42 184.883 289.15 185.067 288.923 185.3C288.696 185.532 288.516 185.807 288.393 186.111C288.271 186.414 288.208 186.739 288.208 187.068V190.259C288.208 190.587 288.271 190.913 288.393 191.216C288.516 191.519 288.696 191.795 288.923 192.027C289.15 192.259 289.42 192.444 289.717 192.569C290.013 192.695 290.331 192.759 290.652 192.758ZM326.689 188.611C326.696 190.417 326.355 192.207 325.684 193.879C325.013 195.55 324.025 197.069 322.779 198.349C321.532 199.629 320.051 200.645 318.42 201.338C316.788 202.031 315.039 202.388 313.273 202.388C311.506 202.388 309.757 202.031 308.126 201.338C306.494 200.645 305.013 199.629 303.766 198.349C302.52 197.069 301.533 195.55 300.862 193.879C300.191 192.207 299.849 190.417 299.856 188.611C299.845 185.97 300.586 183.382 301.988 181.165C303.227 179.262 304.904 177.699 306.871 176.614C308.839 175.529 311.037 174.955 313.273 174.943C316.054 174.937 318.767 175.821 321.033 177.471C323.299 179.121 325.004 181.453 325.909 184.143C326.437 185.57 326.701 187.085 326.689 188.611ZM384.306 177.123H385.918C386.019 177.774 386.175 178.415 386.386 179.037L385.034 179.889C384.834 179.998 384.658 180.149 384.517 180.331C384.376 180.513 384.273 180.722 384.215 180.947C384.156 181.171 384.143 181.405 384.177 181.635C384.21 181.865 384.29 182.085 384.41 182.282L385.502 184.196C385.61 184.401 385.757 184.581 385.935 184.725C386.113 184.869 386.318 184.974 386.537 185.034C386.756 185.094 386.985 185.107 387.21 185.073C387.434 185.039 387.65 184.957 387.842 184.835L389.195 184.036C389.662 184.515 390.13 185.047 390.598 185.473L389.818 186.909C389.591 187.311 389.529 187.788 389.646 188.237C389.763 188.686 390.049 189.069 390.442 189.302L392.315 190.418C392.71 190.642 393.174 190.7 393.61 190.581C394.046 190.462 394.42 190.175 394.654 189.78L395.487 188.344C396.113 188.56 396.757 188.72 397.41 188.823V190.525C397.408 190.756 397.451 190.985 397.536 191.199C397.622 191.413 397.748 191.608 397.908 191.771C398.068 191.935 398.258 192.064 398.467 192.152C398.676 192.239 398.901 192.283 399.127 192.28H401.31C401.764 192.276 402.199 192.09 402.52 191.761C402.841 191.433 403.023 190.989 403.027 190.525V188.823C403.662 188.714 404.288 188.554 404.898 188.344L405.731 189.78C405.965 190.175 406.339 190.462 406.775 190.581C407.211 190.7 407.675 190.642 408.07 190.418L409.943 189.302C410.332 189.066 410.618 188.687 410.744 188.242C410.87 187.797 410.825 187.321 410.619 186.909L409.787 185.473C410.277 185.034 410.729 184.554 411.139 184.036L412.595 184.835C412.788 184.954 413.003 185.033 413.227 185.065C413.451 185.098 413.679 185.084 413.898 185.025C414.116 184.965 414.321 184.861 414.499 184.719C414.677 184.576 414.825 184.398 414.935 184.196L416.027 182.282C416.137 182.079 416.206 181.857 416.232 181.627C416.257 181.397 416.238 181.164 416.175 180.941C416.112 180.719 416.007 180.512 415.866 180.331C415.724 180.15 415.549 180 415.351 179.889L413.999 179.037C414.21 178.415 414.366 177.774 414.467 177.123H416.079C416.305 177.125 416.529 177.082 416.738 176.995C416.948 176.907 417.138 176.778 417.298 176.615C417.458 176.451 417.584 176.257 417.669 176.043C417.755 175.829 417.798 175.599 417.795 175.368V173.134C417.802 172.902 417.762 172.671 417.678 172.455C417.594 172.239 417.468 172.042 417.307 171.878C417.147 171.714 416.955 171.585 416.743 171.499C416.532 171.413 416.306 171.373 416.079 171.38H414.467C414.366 170.711 414.21 170.053 413.999 169.412L415.351 168.614C415.747 168.384 416.039 168.005 416.165 167.558C416.292 167.111 416.242 166.631 416.027 166.221L414.935 164.253C414.705 163.854 414.33 163.563 413.893 163.444C413.455 163.324 412.989 163.386 412.595 163.615L411.867 164.041L411.139 164.466C410.742 163.937 410.289 163.455 409.787 163.03L410.619 161.594C410.828 161.183 410.875 160.705 410.749 160.259C410.623 159.814 410.335 159.435 409.943 159.201L408.07 158.084C407.876 157.968 407.661 157.891 407.438 157.86C407.215 157.829 406.988 157.844 406.77 157.903C406.552 157.962 406.348 158.065 406.17 158.206C405.992 158.347 405.842 158.522 405.731 158.722L404.898 160.158C404.297 159.908 403.669 159.729 403.027 159.627V157.978C403.029 157.747 402.986 157.517 402.901 157.303C402.816 157.089 402.689 156.895 402.529 156.731C402.369 156.568 402.179 156.439 401.97 156.351C401.761 156.264 401.536 156.22 401.31 156.223H399.127C398.899 156.216 398.673 156.257 398.462 156.342C398.251 156.428 398.059 156.557 397.898 156.721C397.737 156.886 397.611 157.082 397.527 157.298C397.443 157.514 397.404 157.745 397.41 157.978V159.627C396.749 159.715 396.102 159.894 395.487 160.158L394.654 158.722C394.543 158.522 394.393 158.347 394.215 158.206C394.037 158.065 393.833 157.962 393.615 157.903C393.397 157.844 393.17 157.829 392.947 157.86C392.724 157.891 392.509 157.968 392.315 158.084L390.442 159.201C390.247 159.315 390.075 159.468 389.938 159.65C389.8 159.833 389.699 160.041 389.641 160.264C389.583 160.487 389.569 160.719 389.599 160.947C389.63 161.176 389.704 161.395 389.818 161.594L390.598 163.03C390.105 163.482 389.636 163.961 389.195 164.466L387.842 163.615C387.648 163.498 387.433 163.422 387.21 163.391C386.987 163.36 386.76 163.375 386.542 163.434C386.324 163.493 386.12 163.596 385.942 163.737C385.763 163.878 385.614 164.053 385.502 164.253L384.41 166.221C384.187 166.582 384.112 167.018 384.199 167.435C384.287 167.853 384.531 168.218 384.878 168.454L385.034 168.614L386.386 169.412C386.175 170.053 386.019 170.711 385.918 171.38H384.306C384.079 171.373 383.853 171.413 383.642 171.499C383.43 171.585 383.238 171.714 383.078 171.878C382.917 172.042 382.791 172.239 382.707 172.455C382.623 172.671 382.583 172.902 382.59 173.134V175.368C382.588 175.599 382.631 175.829 382.716 176.043C382.801 176.257 382.928 176.451 383.088 176.615C383.247 176.778 383.437 176.907 383.647 176.994C383.856 177.082 384.08 177.125 384.306 177.123ZM390.754 174.252C390.739 172.947 390.99 171.654 391.492 170.454C391.993 169.254 392.734 168.175 393.666 167.285C395.418 165.536 397.771 164.562 400.219 164.572C402.717 164.595 405.107 165.623 406.868 167.435C408.63 169.247 409.623 171.696 409.631 174.252C409.624 176.807 408.626 179.255 406.857 181.059C405.088 182.864 402.691 183.877 400.193 183.877C397.694 183.877 395.297 182.864 393.528 181.059C391.759 179.255 390.761 176.807 390.754 174.252ZM417.275 234.453V234.506L417.847 235.517C417.535 235.836 417.171 236.155 416.859 236.527L415.871 235.942C415.734 235.857 415.583 235.8 415.425 235.775C415.267 235.751 415.106 235.758 414.952 235.798C414.797 235.837 414.651 235.908 414.523 236.006C414.395 236.104 414.288 236.227 414.207 236.367L413.427 237.75C413.28 238.041 413.247 238.379 413.333 238.695C413.42 239.011 413.621 239.281 413.895 239.452L414.883 240.037C414.731 240.489 414.609 240.951 414.519 241.419H413.375C413.217 241.417 413.06 241.446 412.914 241.507C412.768 241.567 412.635 241.658 412.523 241.772C412.412 241.886 412.324 242.022 412.264 242.171C412.205 242.321 412.176 242.481 412.179 242.643V244.238C412.175 244.402 412.203 244.565 412.261 244.718C412.32 244.871 412.407 245.011 412.518 245.13C412.629 245.248 412.762 245.343 412.909 245.409C413.056 245.475 413.214 245.511 413.375 245.514H414.519C414.616 245.981 414.737 246.443 414.883 246.897L413.895 247.482C413.616 247.648 413.41 247.918 413.323 248.236C413.236 248.554 413.273 248.894 413.427 249.184L414.207 250.513C414.281 250.661 414.384 250.792 414.509 250.897C414.635 251.002 414.78 251.08 414.936 251.125C415.093 251.17 415.256 251.181 415.417 251.159C415.578 251.136 415.732 251.079 415.871 250.992L416.859 250.407C417.171 250.78 417.535 251.099 417.847 251.418L417.275 252.428C417.128 252.72 417.094 253.057 417.181 253.373C417.268 253.689 417.469 253.96 417.743 254.13L419.095 254.927C419.38 255.078 419.71 255.112 420.019 255.023C420.328 254.934 420.592 254.729 420.759 254.449L421.331 253.439C421.773 253.594 422.225 253.718 422.683 253.811V254.981C422.68 255.145 422.708 255.308 422.766 255.461C422.824 255.614 422.911 255.754 423.022 255.872C423.133 255.991 423.266 256.086 423.413 256.152C423.56 256.218 423.719 256.254 423.879 256.257H425.439C425.6 256.253 425.758 256.218 425.905 256.152C426.052 256.086 426.185 255.991 426.296 255.872C426.407 255.754 426.494 255.614 426.552 255.461C426.61 255.308 426.638 255.145 426.635 254.981V253.811C427.093 253.718 427.545 253.594 427.987 253.439L428.559 254.449C428.726 254.729 428.99 254.934 429.299 255.023C429.608 255.112 429.938 255.078 430.223 254.927L431.575 254.13C431.849 253.959 432.05 253.689 432.137 253.373C432.224 253.057 432.19 252.72 432.043 252.428L431.471 251.418C431.809 251.107 432.122 250.769 432.407 250.407L433.447 250.992C433.585 251.079 433.74 251.136 433.901 251.159C434.061 251.181 434.225 251.17 434.382 251.125C434.538 251.08 434.683 251.003 434.809 250.897C434.935 250.792 435.037 250.661 435.111 250.513L435.839 249.184C435.926 249.046 435.984 248.891 436.009 248.729C436.035 248.567 436.029 248.401 435.99 248.241C435.951 248.082 435.88 247.933 435.783 247.802C435.686 247.672 435.563 247.563 435.423 247.482L434.435 246.897C434.581 246.443 434.703 245.981 434.799 245.514H435.943C436.104 245.511 436.262 245.475 436.409 245.409C436.556 245.343 436.689 245.248 436.8 245.13C436.911 245.011 436.998 244.871 437.056 244.718C437.115 244.565 437.143 244.402 437.139 244.238V242.643C437.142 242.481 437.113 242.321 437.054 242.171C436.994 242.022 436.906 241.886 436.795 241.772C436.683 241.658 436.55 241.568 436.404 241.507C436.258 241.447 436.101 241.417 435.943 241.419H434.799C434.709 240.951 434.587 240.489 434.435 240.037L435.423 239.452C435.618 239.33 435.765 239.141 435.839 238.92C435.941 238.743 435.995 238.541 435.995 238.335C435.995 238.129 435.941 237.927 435.839 237.75L435.111 236.367C435.03 236.227 434.923 236.104 434.795 236.006C434.667 235.908 434.521 235.837 434.366 235.798C434.211 235.758 434.05 235.751 433.893 235.775C433.735 235.8 433.583 235.857 433.447 235.942L432.407 236.527C432.122 236.165 431.809 235.827 431.471 235.517L432.043 234.506C432.194 234.215 432.229 233.876 432.142 233.559C432.055 233.243 431.852 232.972 431.575 232.804L430.223 232.006C430.087 231.921 429.935 231.865 429.777 231.84C429.62 231.815 429.459 231.823 429.304 231.863C429.149 231.902 429.003 231.973 428.875 232.071C428.748 232.168 428.64 232.291 428.559 232.432L427.987 233.495C427.555 233.298 427.101 233.155 426.635 233.07V231.9C426.637 231.739 426.608 231.578 426.549 231.429C426.49 231.279 426.402 231.143 426.29 231.029C426.179 230.915 426.046 230.825 425.9 230.764C425.754 230.704 425.597 230.674 425.439 230.677H423.879C423.721 230.674 423.565 230.704 423.418 230.764C423.272 230.825 423.139 230.915 423.028 231.029C422.916 231.143 422.828 231.279 422.769 231.429C422.71 231.578 422.68 231.739 422.683 231.9V233.07C422.217 233.155 421.763 233.298 421.331 233.495L420.759 232.432C420.678 232.291 420.57 232.168 420.443 232.071C420.315 231.973 420.169 231.902 420.014 231.863C419.859 231.823 419.698 231.815 419.54 231.84C419.383 231.865 419.231 231.921 419.095 232.006L417.743 232.804C417.468 232.96 417.265 233.221 417.177 233.53C417.089 233.839 417.125 234.17 417.275 234.453ZM422.319 237.059C423.069 236.78 423.861 236.636 424.659 236.633C426.427 236.639 428.121 237.362 429.37 238.643C430.618 239.924 431.319 241.658 431.319 243.467C431.319 245.275 430.618 247.01 429.37 248.291C428.121 249.572 426.427 250.295 424.659 250.301C423.088 250.307 421.566 249.748 420.359 248.721C419.151 247.693 418.337 246.264 418.057 244.683C417.778 243.103 418.052 241.472 418.832 240.078C419.611 238.684 420.846 237.615 422.319 237.059Z" fill="black"/>
<path opacity="0.1" d="M372.087 268.116C378.125 268.125 384.003 266.126 388.833 262.42C393.663 258.714 397.183 253.501 398.862 247.569C400.541 241.637 400.288 235.308 398.14 229.536C395.993 223.764 392.069 218.863 386.959 215.573C382.532 212.635 377.364 211.082 372.087 211.105C368.429 211.106 364.808 211.845 361.43 213.279C358.051 214.712 354.983 216.813 352.399 219.46C349.815 222.108 347.767 225.25 346.371 228.707C344.976 232.165 344.261 235.87 344.266 239.61C344.251 241.907 344.531 244.196 345.098 246.418C346.569 252.604 350.029 258.106 354.923 262.041C359.817 265.975 365.861 268.115 372.087 268.116ZM364.027 281.783C363.075 281.783 362.162 282.17 361.49 282.858C360.817 283.546 360.439 284.48 360.439 285.453C360.439 286.426 360.817 287.359 361.49 288.048C362.162 288.736 363.075 289.122 364.027 289.122H380.147C380.622 289.129 381.094 289.04 381.536 288.858C381.977 288.677 382.379 288.408 382.718 288.066C383.056 287.725 383.325 287.318 383.509 286.869C383.692 286.421 383.787 285.939 383.787 285.453C383.787 284.966 383.692 284.485 383.509 284.036C383.325 283.587 383.056 283.181 382.718 282.839C382.379 282.498 381.977 282.228 381.536 282.047C381.094 281.866 380.622 281.776 380.147 281.783H364.027ZM388.259 273.965C388.263 273.48 388.174 272.998 387.996 272.548C387.818 272.098 387.554 271.688 387.221 271.342C386.888 270.996 386.491 270.721 386.053 270.532C385.616 270.344 385.146 270.245 384.671 270.243H359.554C358.601 270.25 357.689 270.643 357.017 271.336C356.346 272.028 355.969 272.964 355.969 273.939C355.969 274.914 356.346 275.85 357.017 276.542C357.689 277.235 358.601 277.627 359.554 277.635H384.671C385.622 277.633 386.534 277.246 387.206 276.558C387.879 275.87 388.257 274.938 388.259 273.965Z" fill="black"/>
<path d="M502.87 563.874C500.01 564.779 496.994 565.63 493.926 566.427L467.769 491.601C465.363 481.606 463.592 471.463 462.465 461.235C461.31 450.852 461.136 440.38 461.945 429.964C461.965 429.074 462.034 428.186 462.153 427.305C462.575 422.804 463.234 418.331 464.129 413.903C464.337 412.999 464.493 412.148 464.701 411.244L470.785 409.329L494.446 401.778L502.818 399.119C502.766 400.927 502.662 402.682 502.558 404.49C502.402 407.734 502.246 410.925 502.038 414.116C501.986 415.286 501.934 416.456 501.83 417.626C501.674 419.966 501.518 422.252 501.362 424.486C500.417 444.293 497.241 463.923 491.898 482.986L502.87 563.874Z" fill="white"/>
<path d="M481.132 408.903C481.028 409.222 480.924 409.488 480.82 409.807C479.364 414.54 477.856 419.22 476.348 423.847C475.672 425.815 475.048 427.729 474.424 429.644C470.628 440.812 466.676 451.501 462.464 461.234C458.746 470.173 454.311 478.782 449.204 486.973L439.323 566.905C435.931 565.739 432.629 564.317 429.443 562.651L423.671 488.835C423.818 467.145 427.563 445.638 434.747 425.23C436.606 420.166 438.777 415.228 441.247 410.446L451.076 410.073L459.864 409.701L470.784 409.328L470.888 409.275L481.132 408.903Z" fill="white"/>
<path d="M432.054 424.306C452.697 432.004 477.277 432.094 503.815 423.737C509.174 397.624 500.792 363.195 504.472 322.951C488.57 317.356 454.016 315.784 436.65 327.939C432.218 368.573 445.147 377.298 432.054 424.306Z" fill="#6828BC"/>
<path d="M436.651 327.939L404.754 372.274L345.278 359.926L342.771 365.821C369.738 379.275 393.515 396.838 408.655 395.817C421.578 389.082 432.156 378.437 438.95 365.332L436.651 327.939Z" fill="#6828BC"/>
<path d="M458.702 320.069C465.906 316.045 466.603 308.746 463.848 300.09H480.098C478.92 308.372 476.765 314.451 482.544 319.124C473.369 325.446 465.587 325.968 458.702 320.069Z" fill="#FDE3EA"/>
<path d="M453.829 278.152C449.493 286.413 453.292 298.321 458.941 311.058C462.683 315.051 473.434 309.357 482.544 305.93L475.258 270.46L453.829 278.152Z" fill="#FDE3EA"/>
<path d="M345.998 360.076C345.998 360.076 341.838 352.064 340.616 352.924C339.393 353.783 341.915 357.222 340.616 357.143C339.316 357.065 333.411 350.73 331.981 354.956C330.552 359.182 333.055 367.219 343.466 365.821L345.998 360.076Z" fill="#F4C3D3"/>
<path d="M452.572 388.894L553.388 364.232C555.005 363.837 556.71 364.114 558.127 365.004C559.544 365.894 560.557 367.323 560.944 368.977L567.053 395.096C567.44 396.75 567.169 398.494 566.298 399.943C565.428 401.392 564.031 402.429 562.414 402.824L461.598 427.486C459.98 427.882 458.276 427.604 456.859 426.714C455.441 425.825 454.428 424.396 454.041 422.742L447.932 396.622C447.741 395.804 447.709 394.954 447.838 394.122C447.968 393.291 448.256 392.493 448.687 391.776C449.118 391.058 449.683 390.434 450.349 389.94C451.016 389.445 451.771 389.09 452.572 388.894Z" fill="#F8ACC0"/>
<path d="M477.621 397.326L460.079 401.617C459.314 401.804 458.509 401.673 457.839 401.252C457.17 400.832 456.691 400.157 456.508 399.375C456.325 398.594 456.454 397.77 456.865 397.085C457.276 396.401 457.936 395.911 458.7 395.724L476.242 391.432C477.006 391.246 477.812 391.377 478.481 391.797C479.151 392.218 479.63 392.893 479.813 393.674C479.996 394.456 479.867 395.279 479.456 395.964C479.045 396.649 478.385 397.139 477.621 397.326ZM536.428 396.229L463.018 414.187C462.254 414.374 461.449 414.243 460.779 413.822C460.11 413.402 459.631 412.727 459.448 411.945C459.265 411.164 459.393 410.34 459.804 409.655C460.215 408.97 460.876 408.481 461.64 408.294L535.05 390.336C535.814 390.149 536.619 390.28 537.289 390.7C537.958 391.121 538.437 391.796 538.62 392.577C538.803 393.359 538.675 394.183 538.264 394.867C537.853 395.552 537.192 396.042 536.428 396.229Z" fill="white"/>
<path d="M504.473 322.951C517.744 341.65 529.483 362.43 528.79 370.247C520.222 389.561 508.728 407.372 494.734 423.025L485.499 421.64L507.431 372.988L494.456 346.244L504.473 322.951Z" fill="#6828BC"/>
<path d="M485.497 421.64L477.88 423.504C477.88 423.504 476.68 430.717 485.497 430.931C486.615 431.054 487.746 430.945 488.822 430.611C489.897 430.276 490.896 429.724 491.758 428.986C492.62 428.248 493.328 427.339 493.839 426.315C494.35 425.291 494.654 424.172 494.733 423.025L485.497 421.64Z" fill="#FDE3EA"/>
<path d="M449.813 290.653C455.454 293.644 465.796 287.448 465.796 287.448C467.14 290.302 467.645 293.494 467.249 296.636C466.423 301.283 460.38 308.892 457.447 307.599C454.514 306.305 456.133 313.249 459.528 313.089C462.924 312.929 463.916 312.127 464.595 308.708C465.559 305.914 466.693 303.185 467.99 300.535C469.11 297.631 469.763 294.56 469.923 291.443C469.557 289.424 474.624 287.02 474.833 291.828C475.042 296.636 471.784 297.574 471.124 301.069C471.001 301.995 471.091 302.937 471.386 303.821C471.682 304.704 472.176 305.505 472.828 306.159C473.48 306.813 474.272 307.302 475.142 307.587C476.012 307.872 476.935 307.945 477.837 307.8C483.033 307.32 486.063 297.384 485.436 290.866C484.81 284.349 480.84 283.922 480.317 277.939C479.795 271.957 472.587 263.516 465.587 269.072C458.588 274.628 453.678 279.008 449.813 274.627C445.948 270.247 441.665 280.61 443.963 285.632C446.261 290.653 449.813 290.653 449.813 290.653Z" fill="#061067"/>
<path d="M319.201 168.364H316.913C316.732 167.426 316.489 166.503 316.185 165.599L318.161 164.429C318.44 164.267 318.685 164.05 318.881 163.79C319.077 163.531 319.22 163.234 319.302 162.917C319.385 162.6 319.404 162.269 319.36 161.944C319.316 161.62 319.209 161.307 319.045 161.025L317.485 158.26C317.327 157.974 317.115 157.724 316.861 157.524C316.607 157.323 316.317 157.177 316.007 157.092C315.697 157.008 315.374 156.988 315.056 157.033C314.738 157.078 314.433 157.188 314.157 157.355L312.181 158.526C311.879 158.146 311.548 157.79 311.193 157.462V157.409C310.881 157.09 310.517 156.771 310.205 156.505L310.829 155.388L311.349 154.431C311.668 153.858 311.753 153.18 311.588 152.544C311.423 151.907 311.019 151.362 310.465 151.027L307.761 149.432C307.148 149.116 306.439 149.059 305.785 149.272C305.209 149.449 304.723 149.85 304.433 150.389L303.289 152.41C302.409 152.088 301.504 151.839 300.585 151.665V149.325C300.585 148.997 300.522 148.672 300.399 148.368C300.277 148.065 300.097 147.789 299.87 147.557C299.643 147.325 299.373 147.141 299.076 147.015C298.78 146.89 298.462 146.825 298.14 146.826H295.02C294.699 146.825 294.381 146.89 294.085 147.015C293.788 147.141 293.519 147.325 293.292 147.557C293.065 147.789 292.884 148.065 292.762 148.368C292.639 148.672 292.576 148.997 292.577 149.325V151.665C291.656 151.832 290.751 152.081 289.873 152.41L288.729 150.389C288.408 149.814 287.88 149.391 287.257 149.212C286.634 149.032 285.967 149.111 285.401 149.432L282.696 151.027C282.142 151.362 281.739 151.907 281.573 152.544C281.408 153.18 281.494 153.858 281.813 154.431L282.956 156.505C282.247 157.124 281.586 157.8 280.98 158.526L279.004 157.355C278.729 157.186 278.423 157.075 278.105 157.029C277.787 156.983 277.463 157.003 277.153 157.087C276.843 157.172 276.552 157.319 276.298 157.52C276.045 157.722 275.833 157.973 275.676 158.26L274.116 161.025C274.012 161.238 273.96 161.397 273.856 161.61C273.733 162.143 273.778 162.702 273.983 163.208C274.189 163.714 274.545 164.141 275 164.429L276.976 165.599C276.666 166.497 276.439 167.423 276.3 168.364H273.96C273.639 168.364 273.321 168.428 273.024 168.554C272.728 168.679 272.458 168.863 272.231 169.095C272.004 169.327 271.824 169.603 271.701 169.907C271.579 170.21 271.516 170.535 271.516 170.864V174.055C271.516 174.383 271.579 174.708 271.701 175.012C271.824 175.315 272.004 175.591 272.231 175.823C272.458 176.055 272.728 176.239 273.024 176.365C273.321 176.49 273.639 176.555 273.96 176.554H276.3C276.452 177.493 276.678 178.418 276.976 179.319L275 180.489C274.723 180.653 274.481 180.871 274.286 181.131C274.092 181.391 273.949 181.687 273.867 182.003C273.785 182.32 273.765 182.649 273.807 182.974C273.85 183.298 273.955 183.61 274.116 183.893L275.676 186.605C275.83 186.895 276.039 187.149 276.291 187.355C276.543 187.56 276.833 187.712 277.143 187.801C277.453 187.891 277.777 187.915 278.097 187.874C278.417 187.833 278.725 187.727 279.004 187.563L280.98 186.393C281.604 187.084 282.28 187.775 282.956 188.414L281.813 190.434C281.494 191.007 281.408 191.684 281.573 192.321C281.739 192.958 282.142 193.503 282.696 193.838L285.401 195.433C285.96 195.763 286.623 195.852 287.247 195.683C287.87 195.514 288.403 195.099 288.729 194.529L289.925 192.455C290.785 192.784 291.673 193.033 292.577 193.2V195.593C292.585 196.253 292.845 196.884 293.301 197.351C293.758 197.818 294.375 198.084 295.02 198.093H298.14C298.786 198.084 299.403 197.818 299.86 197.351C300.317 196.884 300.577 196.253 300.585 195.593V193.2C301.504 193.026 302.409 192.777 303.289 192.455L304.433 194.529C304.761 195.096 305.293 195.509 305.916 195.678C306.539 195.847 307.201 195.759 307.761 195.433L310.465 193.838C311.019 193.502 311.423 192.958 311.588 192.321C311.753 191.685 311.668 191.007 311.349 190.434L310.205 188.414C310.902 187.78 311.562 187.106 312.181 186.393L314.157 187.563C314.436 187.726 314.745 187.83 315.064 187.87C315.383 187.911 315.707 187.885 316.017 187.796C316.327 187.707 316.616 187.556 316.868 187.351C317.12 187.147 317.33 186.893 317.485 186.605L319.045 183.893C319.212 183.612 319.322 183.299 319.368 182.974C319.414 182.648 319.395 182.317 319.312 181.999C319.23 181.681 319.085 181.383 318.887 181.124C318.69 180.865 318.443 180.649 318.161 180.489L316.185 179.319C316.476 178.412 316.719 177.489 316.913 176.554H319.201C319.522 176.555 319.84 176.49 320.137 176.365C320.434 176.239 320.703 176.055 320.93 175.823C321.157 175.591 321.337 175.315 321.46 175.012C321.583 174.708 321.646 174.383 321.645 174.055V170.864C321.646 170.535 321.583 170.21 321.46 169.907C321.337 169.603 321.157 169.327 320.93 169.095C320.703 168.863 320.434 168.679 320.137 168.554C319.84 168.428 319.522 168.364 319.201 168.364ZM309.217 167.939C309.745 169.365 310.009 170.88 309.997 172.406C310.004 174.212 309.663 176.003 308.992 177.674C308.321 179.345 307.334 180.864 306.087 182.144C304.84 183.425 303.359 184.44 301.728 185.133C300.096 185.826 298.347 186.183 296.581 186.183C294.814 186.183 293.065 185.826 291.434 185.133C289.802 184.44 288.321 183.425 287.074 182.144C285.828 180.864 284.841 179.345 284.17 177.674C283.499 176.003 283.157 174.212 283.164 172.406C283.153 169.765 283.894 167.178 285.297 164.96C286.535 163.057 288.212 161.494 290.179 160.409C292.147 159.324 294.345 158.751 296.581 158.739C299.362 158.733 302.075 159.617 304.341 161.267C306.607 162.916 308.311 165.249 309.217 167.939Z" fill="#E091D2"/>
<path d="M311.662 168.364C311.662 168.311 311.662 168.311 311.61 168.311C311.349 167.341 311.001 166.397 310.57 165.493C309.837 163.903 308.853 162.447 307.658 161.185C307.606 161.185 307.606 161.185 307.554 161.132C305.633 159.178 303.25 157.768 300.638 157.037H300.586C299.281 156.671 297.934 156.492 296.581 156.505C295.229 156.495 293.882 156.674 292.577 157.037H292.526C289.885 157.765 287.48 159.196 285.557 161.185C284.782 161.968 284.101 162.843 283.529 163.791C282.631 165.176 281.964 166.703 281.553 168.311C281.501 168.311 281.501 168.311 281.501 168.364C281.186 169.687 281.028 171.044 281.033 172.406C281.02 173.807 281.195 175.203 281.553 176.554V176.608C282.28 179.274 283.658 181.708 285.557 183.681L285.609 183.734C287.53 185.687 289.913 187.098 292.526 187.829H292.577C293.882 188.192 295.229 188.371 296.581 188.361C297.934 188.374 299.281 188.195 300.586 187.829H300.638C303.25 187.098 305.633 185.687 307.554 183.734L307.606 183.681C309.515 181.717 310.895 179.28 311.61 176.608V176.554C311.985 175.205 312.177 173.809 312.182 172.406C312.169 171.042 311.994 169.685 311.662 168.364ZM296.581 186.18C293.018 186.168 289.604 184.712 287.089 182.129C284.574 179.547 283.163 176.051 283.165 172.406C283.153 169.765 283.894 167.178 285.297 164.961C286.536 163.057 288.212 161.494 290.18 160.409C292.148 159.325 294.346 158.751 296.581 158.739C299.363 158.733 302.076 159.617 304.342 161.267C306.607 162.916 308.312 165.249 309.217 167.939C309.745 169.366 310.01 170.88 309.998 172.406C310 176.051 308.589 179.547 306.074 182.129C303.559 184.712 300.145 186.168 296.581 186.18Z" fill="#061067"/>
<path style="mix-blend-mode:overlay" d="M321.645 170.863V174.054C321.646 174.383 321.583 174.708 321.46 175.011C321.337 175.315 321.157 175.59 320.93 175.822C320.703 176.055 320.434 176.239 320.137 176.364C319.84 176.49 319.522 176.554 319.201 176.554H316.913C316.719 177.488 316.476 178.411 316.185 179.319L318.161 180.489C318.443 180.648 318.69 180.864 318.887 181.123C319.085 181.383 319.23 181.68 319.312 181.998C319.395 182.316 319.414 182.648 319.368 182.973C319.322 183.299 319.212 183.612 319.045 183.893L317.485 186.605C317.33 186.893 317.12 187.147 316.868 187.351C316.616 187.555 316.327 187.707 316.017 187.796C315.707 187.885 315.383 187.91 315.064 187.87C314.745 187.83 314.436 187.725 314.157 187.562L312.181 186.392C311.562 187.105 310.902 187.78 310.205 188.413L311.349 190.434C311.668 191.006 311.753 191.684 311.588 192.321C311.423 192.957 311.019 193.502 310.465 193.837L307.761 195.433C307.201 195.759 306.539 195.847 305.916 195.678C305.293 195.508 304.761 195.096 304.433 194.529L303.289 192.455C302.409 192.777 301.504 193.026 300.585 193.199V195.593C300.577 196.253 300.317 196.884 299.86 197.351C299.403 197.818 298.786 198.084 298.14 198.092H295.02C294.375 198.084 293.758 197.818 293.301 197.351C292.845 196.884 292.585 196.253 292.577 195.593V193.199C291.673 193.033 290.785 192.783 289.925 192.455L288.729 194.529C288.403 195.098 287.87 195.513 287.247 195.682C286.623 195.852 285.96 195.762 285.401 195.433L282.696 193.837C282.142 193.502 281.739 192.957 281.573 192.321C281.408 191.684 281.494 191.006 281.813 190.434L282.956 188.413C282.28 187.775 281.604 187.083 280.98 186.392L279.004 187.562C278.725 187.727 278.417 187.833 278.097 187.874C277.777 187.915 277.453 187.89 277.143 187.801C276.833 187.712 276.543 187.56 276.291 187.354C276.039 187.149 275.83 186.894 275.676 186.605L274.116 183.893C273.955 183.61 273.85 183.297 273.807 182.973C273.765 182.649 273.785 182.319 273.867 182.003C273.949 181.687 274.092 181.39 274.286 181.13C274.481 180.871 274.723 180.653 275 180.489L276.976 179.319C276.678 178.417 276.452 177.493 276.3 176.554H273.96C273.639 176.554 273.321 176.49 273.024 176.364C272.728 176.239 272.458 176.055 272.231 175.822C272.004 175.59 271.824 175.315 271.701 175.011C271.579 174.708 271.516 174.383 271.516 174.054V170.863C271.516 170.535 271.579 170.21 271.701 169.906C271.824 169.603 272.004 169.327 272.231 169.095C272.458 168.863 272.728 168.679 273.024 168.553C273.321 168.428 273.639 168.363 273.96 168.364H276.3C276.439 167.422 276.666 166.496 276.976 165.598L275 164.428C274.545 164.141 274.189 163.714 273.983 163.208C273.778 162.702 273.733 162.143 273.856 161.609H274.428C276.877 161.508 279.32 161.925 281.604 162.833C282.27 163.098 282.913 163.418 283.528 163.79C284.1 164.162 284.724 164.534 285.297 164.96C283.894 167.177 283.153 169.764 283.164 172.405C283.157 174.212 283.499 176.002 284.17 177.673C284.841 179.345 285.828 180.864 287.074 182.144C288.321 183.424 289.802 184.44 291.434 185.133C293.065 185.826 294.814 186.183 296.581 186.183C298.347 186.183 300.096 185.826 301.728 185.133C303.359 184.44 304.84 183.424 306.087 182.144C307.334 180.864 308.321 179.345 308.992 177.673C309.663 176.002 310.004 174.212 309.997 172.405C310.009 170.88 309.745 169.365 309.217 167.938C309.756 167.177 310.21 166.357 310.569 165.492C310.872 164.756 311.099 163.989 311.245 163.205C311.461 161.673 311.496 160.119 311.349 158.578L311.193 157.461C311.548 157.79 311.879 158.145 312.181 158.525L314.157 157.355C314.433 157.187 314.738 157.078 315.056 157.033C315.374 156.988 315.697 157.008 316.007 157.092C316.317 157.176 316.607 157.323 316.861 157.523C317.115 157.724 317.327 157.974 317.485 158.259L319.045 161.025C319.209 161.307 319.316 161.619 319.36 161.944C319.404 162.269 319.385 162.599 319.302 162.916C319.22 163.233 319.077 163.53 318.881 163.79C318.685 164.05 318.44 164.267 318.161 164.428L316.185 165.598C316.489 166.502 316.732 167.426 316.913 168.364H319.201C319.522 168.363 319.84 168.428 320.137 168.553C320.434 168.679 320.703 168.863 320.93 169.095C321.157 169.327 321.337 169.603 321.46 169.906C321.583 170.21 321.646 170.535 321.645 170.863Z" fill="url(#paint4_linear_194_1956)"/>
<path d="M399.387 155.176H397.775C397.674 154.507 397.517 153.848 397.306 153.207L398.659 152.41C399.054 152.18 399.347 151.801 399.473 151.354C399.599 150.907 399.55 150.427 399.335 150.017L398.243 148.049C398.013 147.65 397.638 147.359 397.201 147.239C396.763 147.12 396.296 147.181 395.903 147.411L395.175 147.837L394.447 148.262C394.05 147.732 393.597 147.251 393.094 146.826L393.926 145.39C394.136 144.979 394.183 144.5 394.057 144.055C393.931 143.609 393.642 143.23 393.25 142.997L391.378 141.88C391.184 141.763 390.969 141.687 390.746 141.656C390.523 141.625 390.296 141.639 390.078 141.699C389.86 141.758 389.656 141.861 389.478 142.002C389.299 142.142 389.15 142.318 389.038 142.518L388.206 143.954C387.605 143.703 386.976 143.525 386.334 143.422V141.774C386.337 141.542 386.294 141.313 386.208 141.099C386.123 140.885 385.997 140.691 385.837 140.527C385.677 140.364 385.487 140.234 385.278 140.147C385.068 140.06 384.844 140.016 384.618 140.018H382.434C382.207 140.011 381.981 140.052 381.769 140.138C381.558 140.224 381.366 140.353 381.206 140.517C381.045 140.682 380.919 140.878 380.835 141.094C380.751 141.31 380.711 141.541 380.718 141.774V143.422C380.056 143.511 379.409 143.69 378.794 143.954L377.962 142.518C377.851 142.318 377.701 142.142 377.523 142.002C377.344 141.861 377.14 141.758 376.923 141.699C376.705 141.639 376.478 141.625 376.254 141.656C376.031 141.687 375.816 141.763 375.622 141.88L373.75 142.997C373.554 143.111 373.383 143.263 373.245 143.446C373.108 143.628 373.007 143.837 372.949 144.06C372.891 144.282 372.877 144.515 372.907 144.743C372.938 144.971 373.012 145.191 373.126 145.39L373.906 146.826C373.412 147.278 372.944 147.757 372.502 148.262L371.15 147.411C370.956 147.294 370.741 147.218 370.517 147.187C370.294 147.156 370.067 147.17 369.849 147.23C369.632 147.289 369.428 147.392 369.249 147.533C369.071 147.673 368.921 147.849 368.81 148.049L367.718 150.017C367.495 150.378 367.42 150.813 367.507 151.231C367.595 151.648 367.838 152.014 368.186 152.25L368.342 152.41L369.694 153.207C369.483 153.849 369.327 154.507 369.226 155.176H367.614C367.387 155.169 367.161 155.209 366.949 155.295C366.738 155.381 366.546 155.51 366.385 155.674C366.225 155.838 366.099 156.034 366.015 156.25C365.931 156.466 365.891 156.698 365.898 156.93V159.164C365.895 159.395 365.938 159.625 366.024 159.839C366.109 160.053 366.235 160.247 366.395 160.41C366.555 160.574 366.745 160.703 366.954 160.79C367.164 160.877 367.388 160.921 367.614 160.919H369.226C369.327 161.57 369.483 162.21 369.694 162.833L368.342 163.684C368.142 163.794 367.966 163.945 367.825 164.127C367.684 164.309 367.581 164.518 367.522 164.743C367.464 164.967 367.451 165.201 367.485 165.431C367.518 165.66 367.598 165.881 367.718 166.078L368.81 167.992C368.917 168.197 369.064 168.377 369.242 168.521C369.42 168.665 369.625 168.77 369.845 168.83C370.064 168.89 370.293 168.903 370.518 168.868C370.742 168.834 370.957 168.753 371.15 168.63L372.502 167.832C372.97 168.311 373.438 168.843 373.906 169.268L373.126 170.704C372.899 171.106 372.837 171.584 372.954 172.033C373.071 172.482 373.357 172.865 373.75 173.098L375.622 174.214C376.017 174.437 376.481 174.496 376.918 174.377C377.354 174.258 377.728 173.971 377.962 173.576L378.794 172.14C379.421 172.356 380.065 172.516 380.718 172.619V174.321C380.716 174.552 380.758 174.781 380.844 174.995C380.929 175.209 381.056 175.404 381.215 175.567C381.375 175.73 381.565 175.86 381.775 175.947C381.984 176.034 382.208 176.078 382.434 176.075H384.618C385.072 176.071 385.506 175.885 385.827 175.557C386.148 175.229 386.33 174.785 386.334 174.321V172.619C386.97 172.51 387.595 172.349 388.206 172.14L389.038 173.576C389.272 173.971 389.647 174.258 390.083 174.377C390.519 174.496 390.983 174.437 391.378 174.214L393.25 173.098C393.64 172.861 393.926 172.482 394.052 172.038C394.177 171.593 394.132 171.116 393.926 170.704L393.094 169.268C393.584 168.83 394.037 168.349 394.447 167.832L395.903 168.63C396.096 168.75 396.311 168.828 396.535 168.861C396.759 168.894 396.987 168.88 397.205 168.82C397.424 168.761 397.628 168.657 397.807 168.514C397.985 168.372 398.133 168.194 398.243 167.992L399.335 166.078C399.444 165.875 399.514 165.653 399.54 165.423C399.565 165.193 399.546 164.96 399.483 164.737C399.42 164.515 399.315 164.307 399.174 164.127C399.032 163.946 398.857 163.796 398.659 163.684L397.306 162.833C397.517 162.21 397.674 161.57 397.775 160.919H399.387C399.613 160.921 399.837 160.877 400.046 160.79C400.255 160.703 400.445 160.574 400.605 160.41C400.765 160.247 400.891 160.053 400.977 159.839C401.062 159.625 401.105 159.395 401.103 159.164V156.93C401.109 156.698 401.07 156.466 400.986 156.25C400.902 156.034 400.776 155.838 400.615 155.674C400.454 155.51 400.262 155.381 400.051 155.295C399.84 155.209 399.614 155.169 399.387 155.176ZM392.938 158.047C392.931 160.602 391.934 163.05 390.165 164.855C388.395 166.659 385.999 167.672 383.5 167.672C381.002 167.672 378.605 166.659 376.836 164.855C375.067 163.05 374.069 160.602 374.062 158.047C374.047 156.742 374.298 155.449 374.8 154.249C375.301 153.05 376.042 151.97 376.974 151.08C378.726 149.332 381.079 148.358 383.526 148.368C386.025 148.39 388.414 149.419 390.176 151.231C391.938 153.042 392.93 155.492 392.938 158.047Z" fill="#E091D2"/>
<path d="M394.083 155.175V155.122C393.6 153.311 392.689 151.649 391.43 150.282L391.275 150.123L391.223 150.07C389.871 148.714 388.208 147.726 386.386 147.198H386.334C385.419 146.943 384.474 146.818 383.526 146.826C382.578 146.811 381.632 146.937 380.718 147.198H380.615C378.775 147.712 377.105 148.722 375.778 150.123H375.726C375.466 150.442 375.206 150.708 374.946 151.08C374.008 152.272 373.318 153.648 372.918 155.122V155.175C372.663 156.11 372.54 157.077 372.554 158.047C372.547 159.016 372.669 159.983 372.918 160.918V160.972C373.423 162.84 374.39 164.543 375.726 165.918L375.778 165.971C377.122 167.365 378.812 168.358 380.666 168.843H380.718C381.632 169.104 382.578 169.229 383.526 169.215C384.474 169.222 385.419 169.097 386.334 168.843C388.194 168.37 389.887 167.376 391.223 165.971H391.275C392.602 164.568 393.567 162.85 394.083 160.972V160.918C394.331 159.983 394.454 159.016 394.447 158.047C394.46 157.077 394.338 156.11 394.083 155.175ZM383.526 167.673C382.286 167.678 381.057 167.434 379.91 166.953C378.762 166.472 377.719 165.764 376.84 164.869C375.961 163.975 375.263 162.912 374.786 161.741C374.309 160.57 374.063 159.315 374.062 158.047C374.047 156.742 374.298 155.449 374.8 154.249C375.301 153.05 376.042 151.97 376.974 151.08C378.726 149.332 381.079 148.358 383.526 148.368C386.025 148.39 388.414 149.419 390.176 151.23C391.938 153.042 392.931 155.491 392.939 158.047C392.939 159.311 392.696 160.563 392.223 161.731C391.75 162.899 391.057 163.96 390.183 164.854C389.308 165.748 388.271 166.457 387.129 166.941C385.986 167.424 384.762 167.673 383.526 167.673Z" fill="#061067"/>
<path style="mix-blend-mode:overlay" d="M401.103 156.929V159.163C401.105 159.395 401.062 159.624 400.977 159.838C400.891 160.052 400.765 160.246 400.605 160.41C400.445 160.573 400.255 160.702 400.046 160.79C399.837 160.877 399.613 160.921 399.387 160.918H397.775C397.674 161.569 397.517 162.21 397.306 162.833L398.659 163.684C398.857 163.795 399.032 163.945 399.174 164.126C399.315 164.307 399.42 164.514 399.483 164.737C399.546 164.959 399.565 165.192 399.54 165.422C399.514 165.652 399.444 165.875 399.335 166.077L398.243 167.991C398.133 168.194 397.985 168.371 397.807 168.514C397.628 168.656 397.424 168.76 397.205 168.82C396.987 168.879 396.759 168.893 396.535 168.86C396.311 168.828 396.096 168.749 395.903 168.629L394.447 167.832C394.037 168.349 393.584 168.829 393.094 169.268L393.926 170.704C394.132 171.116 394.177 171.593 394.052 172.037C393.926 172.482 393.64 172.861 393.25 173.097L391.378 174.213C390.983 174.437 390.519 174.495 390.083 174.376C389.647 174.257 389.272 173.97 389.038 173.575L388.206 172.139C387.595 172.349 386.97 172.509 386.334 172.618V174.32C386.33 174.784 386.148 175.228 385.827 175.556C385.506 175.885 385.072 176.071 384.618 176.075H382.434C382.208 176.077 381.984 176.034 381.775 175.946C381.565 175.859 381.375 175.73 381.215 175.566C381.056 175.403 380.929 175.208 380.844 174.994C380.758 174.78 380.716 174.551 380.718 174.32V172.618C380.065 172.515 379.421 172.355 378.794 172.139L377.962 173.575C377.728 173.97 377.354 174.257 376.918 174.376C376.481 174.495 376.017 174.437 375.622 174.213L373.75 173.097C373.357 172.864 373.071 172.481 372.954 172.032C372.837 171.584 372.899 171.106 373.126 170.704L373.906 169.268C373.438 168.842 372.97 168.31 372.502 167.832L371.15 168.629C370.957 168.752 370.742 168.833 370.518 168.868C370.293 168.902 370.064 168.889 369.845 168.829C369.625 168.769 369.42 168.664 369.242 168.52C369.064 168.376 368.917 168.196 368.81 167.991L367.718 166.077C367.598 165.88 367.518 165.66 367.485 165.43C367.451 165.201 367.464 164.966 367.522 164.742C367.581 164.518 367.684 164.308 367.825 164.126C367.966 163.944 368.142 163.793 368.342 163.684L369.694 162.833C369.483 162.21 369.327 161.569 369.226 160.918H367.614C367.388 160.921 367.164 160.877 366.954 160.79C366.745 160.702 366.555 160.573 366.395 160.41C366.235 160.246 366.109 160.052 366.024 159.838C365.938 159.624 365.895 159.395 365.898 159.163V156.929C365.891 156.697 365.931 156.466 366.015 156.25C366.099 156.034 366.225 155.838 366.385 155.673C366.546 155.509 366.738 155.38 366.949 155.294C367.161 155.209 367.387 155.168 367.614 155.175H369.226C369.327 154.506 369.483 153.848 369.694 153.207L368.342 152.409L368.186 152.25H368.238C370.41 151.543 372.668 151.149 374.946 151.08C375.621 151.027 376.299 151.027 376.974 151.08C376.042 151.97 375.301 153.049 374.8 154.249C374.298 155.448 374.047 156.742 374.062 158.046C374.069 160.602 375.067 163.05 376.836 164.854C378.605 166.658 381.002 167.671 383.5 167.671C385.999 167.671 388.395 166.658 390.165 164.854C391.934 163.05 392.931 160.602 392.938 158.046C392.953 156.742 392.702 155.448 392.201 154.249C391.699 153.049 390.959 151.97 390.026 151.08C390.494 150.814 390.963 150.601 391.43 150.282L392.054 149.963C393.152 149.347 394.196 148.636 395.175 147.836L395.903 147.41C396.296 147.181 396.763 147.119 397.201 147.239C397.638 147.358 398.013 147.649 398.243 148.048L399.335 150.016C399.55 150.426 399.599 150.906 399.473 151.353C399.347 151.801 399.054 152.18 398.659 152.409L397.306 153.207C397.517 153.848 397.674 154.506 397.775 155.175H399.387C399.614 155.168 399.84 155.209 400.051 155.294C400.262 155.38 400.454 155.509 400.615 155.673C400.776 155.838 400.902 156.034 400.986 156.25C401.07 156.466 401.109 156.697 401.103 156.929Z" fill="url(#paint5_linear_194_1956)"/>
<path d="M419.252 225.216H418.107C418.017 224.747 417.895 224.285 417.743 223.833L418.732 223.248C418.927 223.126 419.074 222.938 419.148 222.716C419.25 222.539 419.304 222.337 419.304 222.131C419.304 221.925 419.25 221.724 419.148 221.546L418.419 220.164C418.338 220.023 418.231 219.9 418.103 219.802C417.975 219.705 417.829 219.634 417.674 219.594C417.52 219.555 417.359 219.547 417.201 219.572C417.043 219.596 416.892 219.653 416.755 219.738L415.716 220.323C415.431 219.961 415.117 219.623 414.779 219.313L415.352 218.302C415.502 218.011 415.537 217.672 415.45 217.356C415.363 217.039 415.16 216.769 414.883 216.601L413.531 215.803C413.395 215.718 413.244 215.661 413.086 215.636C412.928 215.611 412.767 215.619 412.612 215.659C412.457 215.698 412.312 215.769 412.184 215.867C412.056 215.965 411.948 216.088 411.867 216.228L411.295 217.292C410.863 217.095 410.409 216.952 409.943 216.866V215.696C409.946 215.535 409.917 215.375 409.858 215.225C409.798 215.076 409.71 214.94 409.599 214.826C409.487 214.711 409.354 214.621 409.208 214.561C409.062 214.5 408.905 214.47 408.747 214.473H407.187C407.029 214.47 406.873 214.5 406.727 214.561C406.58 214.621 406.447 214.711 406.336 214.826C406.224 214.94 406.136 215.076 406.077 215.225C406.018 215.375 405.989 215.535 405.991 215.696V216.866C405.525 216.952 405.071 217.095 404.639 217.292L404.067 216.228C403.986 216.088 403.879 215.965 403.751 215.867C403.623 215.769 403.477 215.698 403.322 215.659C403.168 215.619 403.007 215.611 402.849 215.636C402.691 215.661 402.54 215.718 402.403 215.803L401.051 216.601C400.776 216.757 400.573 217.018 400.485 217.326C400.397 217.635 400.433 217.967 400.583 218.249V218.302L401.155 219.313C400.843 219.632 400.479 219.951 400.167 220.323L399.179 219.738C399.043 219.653 398.891 219.596 398.734 219.572C398.576 219.547 398.415 219.555 398.26 219.594C398.105 219.634 397.959 219.705 397.831 219.802C397.704 219.9 397.596 220.023 397.515 220.164L396.735 221.546C396.588 221.838 396.555 222.176 396.641 222.492C396.728 222.807 396.929 223.078 397.203 223.248L398.191 223.833C398.039 224.285 397.918 224.747 397.827 225.216H396.683C396.525 225.213 396.368 225.243 396.222 225.303C396.076 225.364 395.943 225.454 395.831 225.568C395.72 225.682 395.632 225.818 395.573 225.968C395.514 226.117 395.485 226.277 395.487 226.439V228.034C395.484 228.198 395.512 228.362 395.57 228.515C395.628 228.668 395.715 228.807 395.826 228.926C395.937 229.045 396.07 229.14 396.217 229.206C396.364 229.271 396.522 229.307 396.683 229.31H397.827C397.924 229.778 398.046 230.24 398.191 230.693L397.203 231.279C396.924 231.444 396.718 231.714 396.631 232.032C396.544 232.35 396.581 232.69 396.735 232.98L397.515 234.31C397.589 234.458 397.692 234.588 397.817 234.694C397.943 234.799 398.088 234.876 398.245 234.921C398.401 234.966 398.565 234.978 398.725 234.955C398.886 234.932 399.041 234.875 399.179 234.789L400.167 234.204C400.479 234.576 400.843 234.895 401.155 235.214L400.583 236.224C400.436 236.516 400.402 236.854 400.489 237.17C400.576 237.486 400.777 237.756 401.051 237.926L402.403 238.724C402.688 238.874 403.019 238.908 403.327 238.82C403.636 238.731 403.9 238.526 404.067 238.245L404.639 237.235C405.081 237.39 405.533 237.515 405.991 237.607V238.777C405.988 238.941 406.016 239.104 406.074 239.257C406.132 239.41 406.219 239.55 406.331 239.669C406.442 239.787 406.574 239.882 406.721 239.948C406.868 240.014 407.027 240.05 407.187 240.053H408.747C408.908 240.05 409.066 240.014 409.213 239.948C409.36 239.882 409.493 239.787 409.604 239.669C409.715 239.55 409.802 239.41 409.86 239.257C409.919 239.104 409.947 238.941 409.943 238.777V237.607C410.402 237.515 410.853 237.39 411.295 237.235L411.867 238.245C412.034 238.526 412.298 238.731 412.607 238.82C412.916 238.908 413.246 238.874 413.531 238.724L414.883 237.926C415.157 237.756 415.358 237.486 415.445 237.17C415.532 236.854 415.499 236.516 415.352 236.224L414.779 235.214C415.118 234.904 415.431 234.566 415.716 234.204L416.755 234.789C416.894 234.875 417.048 234.932 417.209 234.955C417.37 234.978 417.533 234.966 417.69 234.921C417.846 234.877 417.991 234.799 418.117 234.694C418.243 234.588 418.345 234.458 418.419 234.31L419.148 232.98C419.234 232.842 419.292 232.687 419.318 232.525C419.344 232.363 419.337 232.197 419.298 232.038C419.259 231.878 419.189 231.729 419.091 231.599C418.994 231.468 418.871 231.359 418.732 231.279L417.743 230.693C417.889 230.24 418.01 229.778 418.107 229.31H419.252C419.412 229.307 419.571 229.271 419.718 229.206C419.865 229.14 419.997 229.045 420.108 228.926C420.22 228.807 420.307 228.668 420.365 228.515C420.423 228.362 420.451 228.198 420.448 228.034V226.439C420.45 226.277 420.421 226.117 420.362 225.968C420.303 225.818 420.215 225.682 420.103 225.568C419.992 225.454 419.859 225.364 419.712 225.303C419.566 225.243 419.41 225.213 419.252 225.216ZM405.627 220.855C406.378 220.576 407.169 220.432 407.967 220.429C409.736 220.436 411.43 221.158 412.678 222.439C413.926 223.72 414.627 225.455 414.627 227.263C414.627 229.072 413.926 230.807 412.678 232.088C411.43 233.368 409.736 234.091 407.967 234.097C406.397 234.104 404.874 233.544 403.667 232.517C402.46 231.49 401.645 230.06 401.366 228.48C401.086 226.899 401.361 225.269 402.14 223.874C402.919 222.48 404.154 221.411 405.627 220.855Z" fill="#E091D2"/>
<path d="M415.456 225.214V225.161C415.393 224.888 415.306 224.621 415.196 224.363C414.799 223.356 414.216 222.435 413.48 221.651L413.428 221.598C412.472 220.636 411.29 219.94 409.996 219.577H409.944C408.65 219.223 407.287 219.223 405.992 219.577H405.94C405.47 219.699 405.016 219.877 404.588 220.109C403.788 220.48 403.064 221.003 402.456 221.651C401.514 222.629 400.834 223.838 400.48 225.161C400.473 225.161 400.466 225.162 400.46 225.165C400.453 225.168 400.447 225.172 400.443 225.177C400.438 225.182 400.434 225.187 400.431 225.194C400.429 225.2 400.428 225.207 400.428 225.214C400.279 225.877 400.209 226.556 400.22 227.236C400.204 227.936 400.291 228.635 400.48 229.309C400.833 230.649 401.513 231.875 402.456 232.873H402.508C403.45 233.854 404.637 234.553 405.94 234.894C405.94 234.901 405.941 234.908 405.944 234.914C405.946 234.921 405.95 234.927 405.955 234.932C405.96 234.937 405.966 234.941 405.972 234.943C405.978 234.946 405.985 234.947 405.992 234.947C407.287 235.301 408.649 235.301 409.944 234.947L409.996 234.894C411.299 234.553 412.486 233.854 413.428 232.873H413.48C414.433 231.883 415.115 230.654 415.456 229.309C415.645 228.635 415.733 227.936 415.716 227.236C415.736 226.552 415.648 225.87 415.456 225.214ZM407.968 234.096C406.398 234.102 404.875 233.543 403.668 232.516C402.461 231.488 401.646 230.059 401.367 228.479C401.087 226.898 401.361 225.267 402.141 223.873C402.92 222.479 404.155 221.41 405.628 220.854C406.378 220.575 407.17 220.431 407.968 220.428C409.736 220.434 411.43 221.157 412.679 222.438C413.927 223.719 414.628 225.453 414.628 227.262C414.628 229.07 413.927 230.805 412.679 232.086C411.43 233.367 409.736 234.09 407.968 234.096Z" fill="#061067"/>
<path style="mix-blend-mode:overlay" d="M420.448 226.438V228.034C420.451 228.198 420.423 228.361 420.365 228.514C420.307 228.667 420.22 228.807 420.108 228.925C419.997 229.044 419.865 229.139 419.718 229.205C419.571 229.271 419.412 229.306 419.252 229.31H418.107C418.01 229.777 417.889 230.239 417.743 230.693L418.732 231.278C418.871 231.358 418.994 231.467 419.091 231.598C419.189 231.728 419.259 231.878 419.298 232.037C419.337 232.196 419.344 232.362 419.318 232.524C419.292 232.686 419.234 232.841 419.148 232.979L418.419 234.309C418.345 234.457 418.243 234.588 418.117 234.693C417.991 234.798 417.846 234.876 417.69 234.921C417.533 234.966 417.37 234.977 417.209 234.954C417.048 234.931 416.894 234.875 416.755 234.788L415.716 234.203C415.431 234.565 415.118 234.903 414.779 235.213L415.352 236.224C415.499 236.515 415.532 236.853 415.445 237.169C415.358 237.485 415.157 237.755 414.883 237.926L413.531 238.723C413.246 238.873 412.916 238.908 412.607 238.819C412.298 238.73 412.034 238.525 411.867 238.245L411.295 237.234C410.853 237.39 410.402 237.514 409.943 237.606V238.776C409.947 238.94 409.919 239.104 409.86 239.257C409.802 239.41 409.715 239.549 409.604 239.668C409.493 239.787 409.36 239.882 409.213 239.948C409.066 240.013 408.908 240.049 408.747 240.052H407.187C407.027 240.049 406.868 240.013 406.721 239.948C406.574 239.882 406.442 239.787 406.331 239.668C406.219 239.549 406.132 239.41 406.074 239.257C406.016 239.104 405.988 238.94 405.991 238.776V237.606C405.533 237.514 405.081 237.39 404.639 237.234L404.067 238.245C403.9 238.525 403.636 238.73 403.327 238.819C403.019 238.908 402.688 238.873 402.403 238.723L401.051 237.926C400.777 237.755 400.576 237.485 400.489 237.169C400.402 236.853 400.436 236.515 400.583 236.224L401.155 235.213C400.843 234.894 400.479 234.575 400.167 234.203L399.179 234.788C399.041 234.875 398.886 234.931 398.725 234.954C398.565 234.977 398.401 234.966 398.245 234.921C398.088 234.876 397.943 234.798 397.817 234.693C397.692 234.588 397.589 234.457 397.515 234.309L396.735 232.979C396.581 232.689 396.544 232.349 396.631 232.031C396.718 231.714 396.924 231.443 397.203 231.278L398.191 230.693C398.046 230.239 397.924 229.777 397.827 229.31H396.683C396.522 229.306 396.364 229.271 396.217 229.205C396.07 229.139 395.937 229.044 395.826 228.925C395.715 228.807 395.628 228.667 395.57 228.514C395.512 228.361 395.484 228.198 395.487 228.034V226.438C395.485 226.277 395.514 226.116 395.573 225.967C395.632 225.817 395.72 225.681 395.831 225.567C395.943 225.453 396.076 225.363 396.222 225.303C396.368 225.242 396.525 225.212 396.683 225.215H397.827C397.918 224.746 398.039 224.284 398.191 223.832L397.203 223.248C396.929 223.077 396.728 222.807 396.641 222.491C396.555 222.175 396.588 221.837 396.735 221.546L397.515 220.163C397.596 220.022 397.704 219.899 397.831 219.802C397.959 219.704 398.105 219.633 398.26 219.594C398.415 219.554 398.576 219.546 398.734 219.571C398.891 219.596 399.043 219.652 399.179 219.737L400.167 220.323C400.479 219.95 400.843 219.631 401.155 219.312L400.583 218.302V218.248C402.01 218.636 403.363 219.265 404.587 220.11C404.743 220.216 404.951 220.375 405.107 220.482C405.263 220.588 405.471 220.748 405.627 220.854C404.378 221.333 403.299 222.184 402.528 223.297C401.758 224.411 401.332 225.735 401.306 227.099C401.28 228.463 401.655 229.803 402.383 230.947C403.11 232.09 404.157 232.983 405.387 233.511C406.616 234.039 407.973 234.177 409.28 233.908C410.588 233.638 411.786 232.973 412.72 231.999C413.653 231.025 414.28 229.786 414.517 228.444C414.754 227.102 414.592 225.717 414.051 224.471C414.435 224.461 414.817 224.426 415.196 224.364C416.48 224.101 417.711 223.615 418.836 222.928C418.94 222.875 419.044 222.768 419.148 222.715C419.074 222.937 418.927 223.125 418.732 223.248L417.743 223.832C417.895 224.284 418.017 224.746 418.107 225.215H419.252C419.41 225.212 419.566 225.242 419.712 225.303C419.859 225.363 419.992 225.453 420.103 225.567C420.215 225.681 420.303 225.817 420.362 225.967C420.421 226.116 420.45 226.277 420.448 226.438Z" fill="url(#paint6_linear_194_1956)"/>
<path opacity="0.1" d="M203.648 589.82C211.255 589.82 217.422 589.194 217.422 588.422C217.422 587.65 211.255 587.024 203.648 587.024C196.041 587.024 189.874 587.65 189.874 588.422C189.874 589.194 196.041 589.82 203.648 589.82Z" fill="black"/>
<path d="M239.972 340.995C230.49 348.64 217.547 355.236 209.004 353.926L197.812 331.253L228.268 322.866C232.855 328.416 236.783 334.501 239.972 340.995Z" fill="#E091D2"/>
<path d="M193.131 579.798L202.237 501.578C199.539 477.436 192.772 436.364 192.772 415.719L227.934 411.185C233.692 426.59 231.73 475.986 228.204 498.979C224.682 519.23 201.24 581.852 201.24 581.852L193.131 579.798Z" fill="#6828BC"/>
<path d="M248.697 582.93L245.377 496.564C226.336 466.214 221.781 433.947 219.662 413.714L253.161 414.633C253.161 414.633 270.648 457.016 270.931 481.986C272.084 502.521 266.019 540.164 257.882 583.41L248.697 582.93Z" fill="#6828BC"/>
<path d="M192.773 434.604C214.73 440.576 242.07 434.079 259.814 427.128C248.923 409.755 255.422 366.48 262.497 336.688C243.903 325.818 206.172 320.322 197.606 331.227C188.333 349.887 190.139 399.856 192.773 434.604Z" fill="#B73BAC"/>
<path d="M330.926 369.078C310.76 381.22 280.84 395.658 269.75 387.057C267.191 385.076 234.108 356.887 238.085 347.855L262.498 336.688L282.191 370.331L328.907 362.944L330.926 369.078Z" fill="#B73BAC"/>
<path d="M221.516 325.294C224.095 329.214 235.048 330.463 240.536 328.31C239.281 326.267 238.473 323.971 238.167 321.578C237.861 319.185 238.065 316.753 238.764 314.449L227.192 313.982C227.035 316.161 226.452 318.284 225.477 320.228C224.501 322.171 223.154 323.894 221.516 325.294Z" fill="#FDE3EA"/>
<path d="M221.852 313.754C223.653 318 241.695 321.332 244.347 316.765C248.488 305.185 245.389 289.021 240.321 283.157L217.373 284.804L221.852 313.754Z" fill="#FDE3EA"/>
<path d="M234.927 298.083C236.935 299.053 239.172 299.416 241.374 299.129C243.576 298.842 245.653 297.916 247.358 296.462C253.246 291.367 255.359 276.312 247.358 275.849C245.375 275.474 243.327 275.815 241.564 276.815C239.801 277.815 238.433 279.412 237.695 281.331C237.695 281.331 223.051 275 216.936 281.254C215.193 282.907 213.948 285.035 213.346 287.387C212.744 289.739 212.811 292.218 213.539 294.532C210.899 297.726 209.454 301.775 209.463 305.958C209.312 313.292 217.087 319.622 220.484 317.924C221.267 319.008 222.274 319.903 223.432 320.546C224.591 321.188 225.873 321.563 227.189 321.644C228.505 321.724 229.822 321.508 231.047 321.011C232.272 320.513 233.376 319.747 234.279 318.766C234.662 318.189 234.926 317.539 235.057 316.855C235.188 316.171 235.182 315.467 235.04 314.785C234.899 314.104 234.624 313.458 234.233 312.888C233.842 312.317 233.342 311.833 232.763 311.465C228.469 308.274 226.221 308.686 226.976 304.62C227.731 300.554 231.455 303.642 233.418 307.347C235.38 311.053 237.645 307.553 237.645 307.553L234.927 298.083ZM248.555 579.208C247.332 580.59 246.631 582.374 246.58 584.238C246.529 586.102 247.131 587.924 248.277 589.374L276.201 589.802C279.489 586.276 265.078 586.523 258.871 578.134C257.348 579.113 255.625 579.719 253.836 579.905C252.047 580.091 250.24 579.852 248.555 579.208ZM194.455 569.454C192.868 570.371 191.653 571.838 191.03 573.591C190.407 575.343 190.416 577.266 191.057 579.012L217.425 588.423C221.633 586.137 207.879 581.724 204.575 571.762C202.828 572.199 201.007 572.218 199.251 571.818C197.496 571.418 195.855 570.609 194.455 569.454Z" fill="#061067"/>
<path d="M328.924 362.947C330.302 356.926 332.883 354.785 332.744 357.586C332.605 360.387 334.33 359.208 336.649 357.042C340.661 353.295 344.714 358.089 342.224 363.031C339.734 367.972 330.905 369.069 330.905 369.069L328.924 362.947Z" fill="#FDE3EA"/>
<path d="M383.266 223.407C383.277 230.37 380.792 237.095 376.281 242.309C371.77 247.524 365.547 250.867 358.789 251.706C352.03 252.544 345.206 250.82 339.607 246.86C334.008 242.899 330.022 236.977 328.405 230.214C327.837 227.992 327.558 225.704 327.573 223.407C327.567 219.667 328.283 215.962 329.678 212.504C331.074 209.047 333.122 205.904 335.706 203.257C338.289 200.61 341.358 198.509 344.736 197.076C348.114 195.642 351.736 194.903 355.393 194.902C360.67 194.879 365.839 196.432 370.265 199.369C374.249 201.918 377.533 205.462 379.808 209.668C382.082 213.873 383.272 218.601 383.266 223.407Z" fill="#FAC8D5"/>
<path d="M371.565 257.762C371.564 258.735 371.185 259.667 370.512 260.355C369.84 261.042 368.928 261.43 367.977 261.432H342.861C341.908 261.424 340.996 261.031 340.324 260.339C339.652 259.646 339.275 258.711 339.275 257.735C339.275 256.76 339.652 255.824 340.324 255.132C340.996 254.44 341.908 254.047 342.861 254.039H367.977C368.452 254.042 368.922 254.14 369.36 254.329C369.797 254.517 370.194 254.793 370.528 255.138C370.861 255.484 371.124 255.894 371.302 256.344C371.48 256.795 371.57 257.276 371.565 257.762ZM367.094 269.249C367.091 269.735 366.995 270.215 366.81 270.663C366.626 271.11 366.357 271.516 366.019 271.857C365.681 272.198 365.28 272.467 364.84 272.649C364.399 272.832 363.928 272.923 363.453 272.919H347.333C346.381 272.919 345.469 272.532 344.796 271.844C344.123 271.156 343.745 270.222 343.745 269.249C343.745 268.276 344.123 267.342 344.796 266.654C345.469 265.966 346.381 265.579 347.333 265.579H363.453C363.928 265.575 364.399 265.666 364.84 265.849C365.28 266.031 365.68 266.3 366.019 266.641C366.357 266.982 366.626 267.388 366.81 267.835C366.995 268.283 367.091 268.763 367.094 269.249Z" fill="#AF5CF6"/>
<path d="M355.411 189.891C354.977 189.891 354.561 189.715 354.254 189.401C353.947 189.087 353.774 188.662 353.774 188.218V183.802C353.774 183.582 353.816 183.364 353.899 183.161C353.981 182.958 354.102 182.773 354.254 182.618C354.406 182.463 354.586 182.339 354.785 182.255C354.983 182.171 355.196 182.128 355.411 182.128C355.845 182.128 356.261 182.304 356.568 182.618C356.875 182.932 357.048 183.358 357.048 183.802V188.218C357.048 188.662 356.875 189.087 356.568 189.401C356.261 189.715 355.845 189.891 355.411 189.891ZM340.962 193.776C340.811 193.931 340.63 194.055 340.431 194.139C340.233 194.223 340.02 194.266 339.805 194.266C339.59 194.266 339.377 194.223 339.179 194.139C338.98 194.055 338.8 193.931 338.648 193.776L335.594 190.653C335.288 190.339 335.115 189.914 335.115 189.47C335.115 189.026 335.288 188.6 335.594 188.286C335.746 188.131 335.927 188.007 336.125 187.923C336.324 187.839 336.537 187.796 336.752 187.796C336.967 187.796 337.18 187.839 337.378 187.923C337.577 188.007 337.757 188.131 337.909 188.286L340.962 191.409C341.269 191.723 341.442 192.148 341.442 192.592C341.442 193.036 341.269 193.462 340.962 193.776ZM369.86 193.776C370.012 193.931 370.192 194.054 370.391 194.139C370.589 194.223 370.802 194.266 371.017 194.266C371.232 194.266 371.445 194.223 371.643 194.139C371.842 194.054 372.022 193.931 372.174 193.776L375.227 190.653C375.379 190.498 375.5 190.313 375.582 190.11C375.664 189.907 375.707 189.689 375.707 189.47C375.707 189.25 375.664 189.032 375.582 188.829C375.5 188.626 375.379 188.442 375.227 188.286C375.075 188.131 374.895 188.007 374.696 187.923C374.498 187.839 374.285 187.796 374.07 187.796C373.855 187.796 373.642 187.839 373.444 187.923C373.245 188.007 373.065 188.131 372.913 188.286L369.86 191.409C369.708 191.564 369.587 191.749 369.505 191.952C369.423 192.155 369.38 192.372 369.38 192.592C369.38 192.812 369.423 193.03 369.505 193.233C369.587 193.436 369.708 193.62 369.86 193.776Z" fill="#FAC8D5"/>
<path style="mix-blend-mode:overlay" d="M383.268 223.407C383.279 230.37 380.794 237.095 376.283 242.309C371.772 247.524 365.549 250.867 358.791 251.706C352.032 252.544 345.208 250.82 339.609 246.86C334.01 242.899 330.024 236.977 328.407 230.214C330.787 230.119 333.168 230.37 335.479 230.959C339.587 231.863 344.423 232.661 347.491 229.789C348.859 228.209 349.997 226.436 350.871 224.524C351.299 223.568 351.95 222.734 352.765 222.094C353.581 221.455 354.538 221.029 355.552 220.855C357.475 221.097 359.303 221.848 360.855 223.035C362.104 223.84 363.554 224.259 365.031 224.24C366.507 224.221 367.947 223.766 369.176 222.928C370.775 221.225 371.749 219.008 371.932 216.653C372.345 214.173 372.606 211.669 372.712 209.155C372.895 207.121 372.736 205.071 372.243 203.092C371.848 201.723 371.174 200.455 370.268 199.369C374.251 201.918 377.535 205.462 379.81 209.668C382.084 213.873 383.274 218.601 383.268 223.407Z" fill="url(#paint7_linear_194_1956)"/>
<path style="mix-blend-mode:overlay" d="M367.095 269.249C367.092 269.734 366.996 270.215 366.812 270.662C366.627 271.11 366.358 271.516 366.02 271.857C365.682 272.198 365.281 272.467 364.841 272.649C364.4 272.831 363.929 272.923 363.455 272.918H347.334C346.383 272.918 345.47 272.531 344.797 271.843C344.124 271.155 343.746 270.222 343.746 269.249C343.746 268.275 344.124 267.342 344.797 266.654C345.47 265.966 346.383 265.579 347.334 265.579H363.455C363.929 265.575 364.4 265.666 364.841 265.848C365.281 266.03 365.682 266.3 366.02 266.641C366.358 266.981 366.627 267.387 366.812 267.835C366.996 268.282 367.092 268.763 367.095 269.249Z" fill="url(#paint8_linear_194_1956)"/>
<path style="mix-blend-mode:overlay" d="M371.565 257.762C371.564 258.735 371.185 259.667 370.512 260.355C369.84 261.042 368.928 261.43 367.977 261.432H342.861C341.908 261.424 340.996 261.031 340.324 260.339C339.652 259.646 339.275 258.711 339.275 257.735C339.275 256.76 339.652 255.824 340.324 255.132C340.996 254.44 341.908 254.047 342.861 254.039H348.945C351.337 254.996 353.573 256.326 355.862 257.496C358.22 258.992 361.063 259.471 363.765 258.826C364.573 258.546 365.255 257.98 365.69 257.23C365.859 256.725 365.998 256.21 366.106 255.688C366.283 255.111 366.527 254.557 366.834 254.039H367.977C368.452 254.042 368.922 254.14 369.36 254.329C369.797 254.517 370.194 254.793 370.528 255.138C370.861 255.484 371.124 255.894 371.302 256.344C371.48 256.795 371.57 257.276 371.565 257.762Z" fill="url(#paint9_linear_194_1956)"/>
<path d="M546.348 240.038C546.348 240.753 546.141 241.452 545.753 242.046C545.365 242.64 544.813 243.103 544.167 243.377C543.521 243.651 542.811 243.722 542.126 243.583C541.44 243.443 540.81 243.099 540.316 242.594C539.822 242.088 539.485 241.444 539.349 240.743C539.213 240.042 539.283 239.316 539.55 238.655C539.818 237.995 540.271 237.431 540.852 237.034C541.433 236.636 542.116 236.425 542.815 236.425C543.752 236.425 544.651 236.805 545.313 237.483C545.976 238.161 546.348 239.08 546.348 240.038Z" fill="#061067"/>
<path d="M527.493 243.653C529.446 243.653 531.029 242.034 531.029 240.037C531.029 238.041 529.446 236.422 527.493 236.422C525.541 236.422 523.958 238.041 523.958 240.037C523.958 242.034 525.541 243.653 527.493 243.653Z" fill="#061067"/>
<path d="M558.278 243.653C560.231 243.653 561.814 242.034 561.814 240.037C561.814 238.041 560.231 236.422 558.278 236.422C556.326 236.422 554.743 238.041 554.743 240.037C554.743 242.034 556.326 243.653 558.278 243.653Z" fill="#061067"/>
<path d="M325 262.326C324.999 266.869 323.72 271.3 321.337 275.012C318.954 278.724 315.585 281.534 311.691 283.057C309.54 283.885 307.278 284.308 305 284.31C301.608 284.305 298.273 283.353 295.307 281.543C292.342 279.734 289.843 277.126 288.045 273.965C286.247 270.803 285.209 267.192 285.028 263.469C284.848 259.746 285.53 256.033 287.012 252.679C288.706 248.891 291.346 245.712 294.624 243.513C297.659 241.493 301.128 240.397 304.675 240.336C308.222 240.276 311.72 241.252 314.811 243.167C317.902 245.081 320.474 247.864 322.265 251.23C324.055 254.597 324.999 258.426 325 262.326Z" fill="#FFDE2F"/>
<path d="M321 263.856C321 267.787 319.995 271.643 318.095 275.003C316.195 278.364 313.472 281.1 310.223 282.913C306.974 284.725 303.325 285.546 299.671 285.285C296.018 285.024 292.502 283.691 289.506 281.432C286.51 279.172 284.149 276.073 282.68 272.472C281.211 268.87 280.691 264.905 281.177 261.009C281.662 257.112 283.134 253.433 285.433 250.373C287.731 247.313 290.768 244.989 294.212 243.655C296.387 242.804 298.685 242.373 301 242.379C303.628 242.373 306.231 242.924 308.66 244.001C311.09 245.078 313.297 246.66 315.155 248.656C317.013 250.651 318.486 253.021 319.489 255.63C320.492 258.238 321.006 261.033 321 263.856Z" fill="#FFDE2F" fill-opacity="0.93"/>
<path style="mix-blend-mode:overlay" d="M325 262.265C324.999 266.658 323.708 270.943 321.302 274.533C318.897 278.122 315.496 280.84 311.565 282.312C307.605 284.809 302.953 285.802 298.382 285.126C293.812 284.449 289.599 282.145 286.446 278.596C283.293 275.047 281.39 270.468 281.054 265.621C280.717 260.774 281.968 255.952 284.597 251.959C285.283 252.242 285.968 252.577 286.653 252.938C288.645 254.022 290.516 255.336 292.233 256.854C293.55 258.219 295.012 259.42 296.588 260.436C297.39 260.935 298.302 261.204 299.234 261.218C300.165 261.232 301.084 260.989 301.899 260.513C302.576 260.003 303.078 259.275 303.329 258.439C303.581 257.603 303.568 256.703 303.294 255.875C303 255.102 302.486 254.432 302.266 253.633C302.116 252.978 302.123 252.294 302.285 251.642C302.447 250.991 302.76 250.391 303.196 249.897C304.074 248.909 305.165 248.157 306.377 247.707C308.343 246.898 310.433 246.479 312.544 246.47C312.789 246.47 313.033 246.496 313.278 246.496C315.537 246.592 317.76 247.124 319.836 248.068C323.176 251.958 325.017 257.021 325 262.265Z" fill="url(#paint10_linear_194_1956)"/>
<path d="M294 223.463C293.999 228.006 292.72 232.438 290.337 236.149C287.954 239.861 284.585 242.672 280.691 244.195C278.54 245.022 276.278 245.445 274 245.447C270.608 245.442 267.273 244.49 264.307 242.681C261.342 240.872 258.843 238.264 257.045 235.102C255.247 231.941 254.209 228.329 254.028 224.606C253.848 220.883 254.53 217.171 256.012 213.817C257.706 210.029 260.346 206.849 263.624 204.65C266.659 202.631 270.128 201.535 273.675 201.474C277.222 201.413 280.72 202.39 283.811 204.304C286.902 206.218 289.474 209.001 291.265 212.368C293.055 215.734 293.999 219.564 294 223.463Z" fill="#FFDE2F"/>
<path d="M290 224.993C290 228.924 288.995 232.78 287.095 236.141C285.195 239.501 282.472 242.237 279.223 244.05C275.974 245.863 272.325 246.684 268.671 246.422C265.018 246.161 261.502 244.828 258.506 242.569C255.51 240.31 253.149 237.21 251.68 233.609C250.211 230.008 249.691 226.043 250.177 222.146C250.662 218.249 252.134 214.571 254.433 211.51C256.731 208.45 259.768 206.127 263.212 204.792C265.387 203.942 267.685 203.51 270 203.517C272.628 203.51 275.231 204.062 277.66 205.139C280.09 206.216 282.297 207.798 284.155 209.793C286.013 211.789 287.486 214.159 288.489 216.767C289.492 219.375 290.006 222.171 290 224.993Z" fill="#FFDE2F" fill-opacity="0.93"/>
<path style="mix-blend-mode:overlay" d="M294 223.403C293.999 227.796 292.708 232.081 290.302 235.67C287.897 239.259 284.496 241.977 280.565 243.45C276.605 245.946 271.953 246.939 267.382 246.263C262.812 245.587 258.599 243.282 255.446 239.733C252.293 236.185 250.39 231.605 250.054 226.759C249.717 221.912 250.968 217.09 253.597 213.096C254.283 213.379 254.968 213.714 255.653 214.075C257.645 215.16 259.516 216.473 261.233 217.992C262.55 219.356 264.012 220.558 265.588 221.573C266.39 222.072 267.302 222.342 268.234 222.355C269.165 222.369 270.084 222.126 270.899 221.651C271.576 221.14 272.078 220.412 272.329 219.576C272.581 218.74 272.568 217.841 272.294 217.013C272 216.24 271.486 215.57 271.266 214.771C271.116 214.116 271.123 213.432 271.285 212.78C271.447 212.128 271.76 211.528 272.196 211.035C273.074 210.046 274.165 209.295 275.377 208.844C277.343 208.036 279.433 207.617 281.544 207.607C281.789 207.607 282.033 207.633 282.278 207.633C284.537 207.729 286.76 208.262 288.836 209.205C292.176 213.096 294.017 218.158 294 223.403Z" fill="url(#paint11_linear_194_1956)"/>
<path d="M301.848 267.899C300.707 267.899 299.795 267.729 299.112 267.387C298.44 267.035 298.104 266.555 298.104 265.947C298.104 265.713 298.163 265.494 298.28 265.291C298.397 265.078 298.557 264.907 298.76 264.779C299.059 265.398 299.475 265.878 300.008 266.219C300.541 266.561 301.123 266.731 301.752 266.731C302.573 266.731 303.24 266.582 303.752 266.283C304.264 265.974 304.52 265.531 304.52 264.955C304.52 264.667 304.419 264.422 304.216 264.219C304.013 264.006 303.763 263.825 303.464 263.675C303.165 263.526 302.749 263.345 302.216 263.131C301.501 262.865 300.915 262.609 300.456 262.363C299.997 262.107 299.603 261.771 299.272 261.355C298.952 260.939 298.792 260.422 298.792 259.803C298.792 259.131 299.016 258.529 299.464 257.995C299.912 257.462 300.541 257.046 301.352 256.747C302.163 256.438 303.085 256.283 304.12 256.283C304.739 256.283 305.288 256.347 305.768 256.475C306.259 256.603 306.637 256.785 306.904 257.019C307.181 257.254 307.32 257.526 307.32 257.835C307.32 258.262 307.176 258.593 306.888 258.827C306.611 259.062 306.243 259.179 305.784 259.179C305.325 259.179 304.941 259.041 304.632 258.763C304.323 258.475 304.088 258.059 303.928 257.515C302.957 257.633 302.2 257.878 301.656 258.251C301.112 258.625 300.84 259.067 300.84 259.579C300.84 259.846 300.936 260.081 301.128 260.283C301.32 260.475 301.56 260.641 301.848 260.779C302.147 260.918 302.557 261.089 303.08 261.291C303.805 261.569 304.397 261.83 304.856 262.075C305.315 262.321 305.704 262.651 306.024 263.067C306.355 263.473 306.52 263.985 306.52 264.603C306.52 265.201 306.333 265.75 305.96 266.251C305.587 266.753 305.048 267.153 304.344 267.451C303.64 267.75 302.808 267.899 301.848 267.899ZM301.192 270.635C301.043 270.635 300.888 270.614 300.728 270.571C300.579 270.539 300.445 270.486 300.328 270.411C300.435 269.963 300.52 269.617 300.584 269.371C300.659 269.083 300.733 268.785 300.808 268.475C300.883 268.177 300.957 267.867 301.032 267.547L302.504 267.467L302.36 268.283C302.317 268.507 302.275 268.731 302.232 268.955C302.2 269.19 302.163 269.425 302.12 269.659C302.067 269.979 301.96 270.219 301.8 270.379C301.651 270.55 301.448 270.635 301.192 270.635ZM302.936 257.387C303.075 256.865 303.224 256.219 303.384 255.451L303.656 254.267C303.795 253.649 304.125 253.339 304.648 253.339C304.797 253.339 304.947 253.366 305.096 253.419C305.245 253.462 305.379 253.521 305.496 253.595C305.357 254.033 305.213 254.486 305.064 254.955C304.925 255.414 304.787 255.894 304.648 256.395C304.584 256.609 304.488 256.939 304.36 257.387H302.936Z" fill="#555555"/>
<path d="M270.848 230.06C269.707 230.06 268.795 229.889 268.112 229.548C267.44 229.196 267.104 228.716 267.104 228.108C267.104 227.873 267.163 227.654 267.28 227.452C267.397 227.238 267.557 227.068 267.76 226.94C268.059 227.558 268.475 228.038 269.008 228.38C269.541 228.721 270.123 228.892 270.752 228.892C271.573 228.892 272.24 228.742 272.752 228.444C273.264 228.134 273.52 227.692 273.52 227.116C273.52 226.828 273.419 226.582 273.216 226.38C273.013 226.166 272.763 225.985 272.464 225.836C272.165 225.686 271.749 225.505 271.216 225.292C270.501 225.025 269.915 224.769 269.456 224.524C268.997 224.268 268.603 223.932 268.272 223.516C267.952 223.1 267.792 222.582 267.792 221.964C267.792 221.292 268.016 220.689 268.464 220.156C268.912 219.622 269.541 219.206 270.352 218.908C271.163 218.598 272.085 218.444 273.12 218.444C273.739 218.444 274.288 218.508 274.768 218.636C275.259 218.764 275.637 218.945 275.904 219.18C276.181 219.414 276.32 219.686 276.32 219.996C276.32 220.422 276.176 220.753 275.888 220.988C275.611 221.222 275.243 221.34 274.784 221.34C274.325 221.34 273.941 221.201 273.632 220.924C273.323 220.636 273.088 220.22 272.928 219.676C271.957 219.793 271.2 220.038 270.656 220.412C270.112 220.785 269.84 221.228 269.84 221.74C269.84 222.006 269.936 222.241 270.128 222.444C270.32 222.636 270.56 222.801 270.848 222.94C271.147 223.078 271.557 223.249 272.08 223.452C272.805 223.729 273.397 223.99 273.856 224.236C274.315 224.481 274.704 224.812 275.024 225.228C275.355 225.633 275.52 226.145 275.52 226.764C275.52 227.361 275.333 227.91 274.96 228.412C274.587 228.913 274.048 229.313 273.344 229.612C272.64 229.91 271.808 230.06 270.848 230.06ZM270.192 232.796C270.043 232.796 269.888 232.774 269.728 232.732C269.579 232.7 269.445 232.646 269.328 232.572C269.435 232.124 269.52 231.777 269.584 231.532C269.659 231.244 269.733 230.945 269.808 230.636C269.883 230.337 269.957 230.028 270.032 229.708L271.504 229.628L271.36 230.444C271.317 230.668 271.275 230.892 271.232 231.116C271.2 231.35 271.163 231.585 271.12 231.82C271.067 232.14 270.96 232.38 270.8 232.54C270.651 232.71 270.448 232.796 270.192 232.796ZM271.936 219.548C272.075 219.025 272.224 218.38 272.384 217.612L272.656 216.428C272.795 215.809 273.125 215.5 273.648 215.5C273.797 215.5 273.947 215.526 274.096 215.58C274.245 215.622 274.379 215.681 274.496 215.756C274.357 216.193 274.213 216.646 274.064 217.116C273.925 217.574 273.787 218.054 273.648 218.556C273.584 218.769 273.488 219.1 273.36 219.548H271.936Z" fill="#555555"/>
<defs>
<linearGradient id="paint0_linear_194_1956" x1="273.59" y1="106.186" x2="509.315" y2="564.885" gradientUnits="userSpaceOnUse">
<stop stop-color="#AF5CF6"/>
<stop offset="0.494" stop-color="#D181DD"/>
<stop offset="1" stop-color="#F8ACC0"/>
</linearGradient>
<linearGradient id="paint1_linear_194_1956" x1="339.948" y1="198.585" x2="512.427" y2="608.324" gradientUnits="userSpaceOnUse">
<stop stop-color="white"/>
<stop offset="0.118" stop-color="#C7C7C7"/>
<stop offset="0.244" stop-color="#939393"/>
<stop offset="0.371" stop-color="#666666"/>
<stop offset="0.498" stop-color="#414141"/>
<stop offset="0.625" stop-color="#242424"/>
<stop offset="0.751" stop-color="#101010"/>
<stop offset="0.876" stop-color="#040404"/>
<stop offset="1"/>
</linearGradient>
<linearGradient id="paint2_linear_194_1956" x1="348.116" y1="168.535" x2="409.83" y2="594.36" gradientUnits="userSpaceOnUse">
<stop stop-color="white"/>
<stop offset="0.433" stop-color="#E2E2E2"/>
<stop offset="1" stop-color="#877C7C"/>
</linearGradient>
<linearGradient id="paint3_linear_194_1956" x1="298.026" y1="421.338" x2="253.773" y2="96.8104" gradientUnits="userSpaceOnUse">
<stop stop-color="white"/>
<stop offset="0.626" stop-color="#5D5D5D"/>
<stop offset="1"/>
</linearGradient>
<linearGradient id="paint4_linear_194_1956" x1="291.042" y1="157.366" x2="309.73" y2="206.022" gradientUnits="userSpaceOnUse">
<stop stop-color="white"/>
<stop offset="0.005" stop-color="#FCFCFC"/>
<stop offset="0.104" stop-color="#C2C2C2"/>
<stop offset="0.206" stop-color="#8E8E8E"/>
<stop offset="0.308" stop-color="#636363"/>
<stop offset="0.411" stop-color="#3F3F3F"/>
<stop offset="0.513" stop-color="#232323"/>
<stop offset="0.617" stop-color="#101010"/>
<stop offset="0.721" stop-color="#040404"/>
<stop offset="0.828"/>
</linearGradient>
<linearGradient id="paint5_linear_194_1956" x1="373.203" y1="143.26" x2="396.589" y2="175.242" gradientUnits="userSpaceOnUse">
<stop stop-color="white"/>
<stop offset="0.005" stop-color="#FCFCFC"/>
<stop offset="0.126" stop-color="#C2C2C2"/>
<stop offset="0.249" stop-color="#8E8E8E"/>
<stop offset="0.372" stop-color="#636363"/>
<stop offset="0.496" stop-color="#3F3F3F"/>
<stop offset="0.62" stop-color="#232323"/>
<stop offset="0.745" stop-color="#101010"/>
<stop offset="0.871" stop-color="#040404"/>
<stop offset="1"/>
</linearGradient>
<linearGradient id="paint6_linear_194_1956" x1="400.981" y1="212.886" x2="415.825" y2="243.398" gradientUnits="userSpaceOnUse">
<stop stop-color="white"/>
<stop offset="0.103" stop-color="#D8D8D8"/>
<stop offset="0.291" stop-color="#979797"/>
<stop offset="0.47" stop-color="#616161"/>
<stop offset="0.635" stop-color="#373737"/>
<stop offset="0.783" stop-color="#191919"/>
<stop offset="0.91" stop-color="#070707"/>
<stop offset="1"/>
</linearGradient>
<linearGradient id="paint7_linear_194_1956" x1="345.942" y1="212.304" x2="376.08" y2="246.108" gradientUnits="userSpaceOnUse">
<stop stop-color="white"/>
<stop offset="0.103" stop-color="#D8D8D8"/>
<stop offset="0.291" stop-color="#979797"/>
<stop offset="0.47" stop-color="#616161"/>
<stop offset="0.635" stop-color="#373737"/>
<stop offset="0.783" stop-color="#191919"/>
<stop offset="0.91" stop-color="#070707"/>
<stop offset="1"/>
</linearGradient>
<linearGradient id="paint8_linear_194_1956" x1="343.746" y1="269.248" x2="367.096" y2="269.248" gradientUnits="userSpaceOnUse">
<stop stop-color="white"/>
<stop offset="0.103" stop-color="#D8D8D8"/>
<stop offset="0.291" stop-color="#979797"/>
<stop offset="0.47" stop-color="#616161"/>
<stop offset="0.635" stop-color="#373737"/>
<stop offset="0.783" stop-color="#191919"/>
<stop offset="0.91" stop-color="#070707"/>
<stop offset="1"/>
</linearGradient>
<linearGradient id="paint9_linear_194_1956" x1="339.273" y1="257.736" x2="371.567" y2="257.736" gradientUnits="userSpaceOnUse">
<stop stop-color="white"/>
<stop offset="0.103" stop-color="#D8D8D8"/>
<stop offset="0.291" stop-color="#979797"/>
<stop offset="0.47" stop-color="#616161"/>
<stop offset="0.635" stop-color="#373737"/>
<stop offset="0.783" stop-color="#191919"/>
<stop offset="0.91" stop-color="#070707"/>
<stop offset="1"/>
</linearGradient>
<linearGradient id="paint10_linear_194_1956" x1="295.948" y1="249.159" x2="312.558" y2="278.886" gradientUnits="userSpaceOnUse">
<stop stop-color="#FFDE2F"/>
<stop offset="0.626" stop-color="#FFDE2F"/>
<stop offset="1" stop-color="#FFDE2F"/>
</linearGradient>
<linearGradient id="paint11_linear_194_1956" x1="264.948" y1="210.296" x2="281.558" y2="240.024" gradientUnits="userSpaceOnUse">
<stop stop-color="#FFDE2F"/>
<stop offset="0.626" stop-color="#FFDE2F"/>
<stop offset="1" stop-color="#FFDE2F"/>
</linearGradient>
</defs>
</svg>
